<?xml version="1.0" encoding="utf-8"?>
<!-- Generator: Adobe Illustrator 24.3.0, SVG Export Plug-In . SVG Version: 6.00 Build 0)  -->
<svg version="1.1" id="Healthcare_Icons" xmlns="http://www.w3.org/2000/svg" xmlns:xlink="http://www.w3.org/1999/xlink" x="0px"
	 y="0px" viewBox="0 0 64 64" style="enable-background:new 0 0 64 64;" xml:space="preserve">
<style type="text/css">
	.st0{fill:#8CE9E2;}
	.st1{fill:#113E68;}
</style>
<g>
	<circle class="st0" cx="45.5" cy="45.5" r="13.5"/>
	<path class="st1" d="M32,41.5L32,41.5c-0.2,0-9.3-0.8-11.6-10c-1.9-1.3-4.3-5.8-4-8.4c0-1,0.6-1.8,1.5-2.2c-0.4-3.9-0.3-8.6,2.8-12
		C23,6.4,26.9,5,32,5h7.8c0.6,0,1,0.4,1,1s-0.4,1-1,1H32c-4.5,0-7.8,1.1-9.8,3.4c-2.8,3.1-2.6,7.6-2.2,11.3c0,0.3,0,0.5-0.2,0.8
		c-0.2,0.2-0.4,0.3-0.7,0.4c-0.6,0-0.7,0.3-0.7,0.6c-0.4,2,2.4,6.2,3.2,6.6c0.3,0.1,0.6,0.4,0.7,0.7c1,4.8,5,8.3,9.9,8.9
		c0.6,0,1,0.5,1,1S32.5,41.6,32,41.5L32,41.5z"/>
	<path class="st1" d="M32,41.5c-0.6,0-1-0.4-1-1c0-0.6,0.4-1,1-1c0.3,0,8.1-0.8,9.8-8.9c0.1-0.4,0.3-0.6,0.7-0.8
		c0.8-0.4,3.5-4.6,3.2-6.6c0-0.3-0.1-0.5-0.7-0.6c-0.3,0-0.5-0.1-0.7-0.4c-0.2-0.2-0.3-0.5-0.2-0.8v-0.3c0.4-3.5,1-8.7-4-10.8
		c-0.5-0.2-0.8-0.8-0.5-1.3c0.2-0.5,0.8-0.8,1.3-0.5c6.3,2.5,5.8,8.6,5.4,12.3c0.9,0.4,1.5,1.2,1.6,2.2c0.3,2.5-2.2,7.1-4,8.4
		c-2.3,9.1-11.4,10-11.5,10L32,41.5z"/>
	<path class="st1" d="M24.3,18.1c-0.4,0-0.8-0.3-0.9-0.6c-0.2-0.5,0.1-1.1,0.6-1.3c0,0,0,0,0,0c1.3-0.5,2.1-2.8,2.3-3.6
		c0.1-0.3,0.3-0.6,0.6-0.7c0.3-0.1,0.7-0.1,0.9,0.1c0.1,0,5.9,4.2,12.1,4.2c0.6,0,1,0.4,1,1s-0.4,1-1,1c-5.2,0-10-2.5-12.1-3.8
		c-0.5,1.3-1.5,3.1-3.1,3.7C24.5,18.1,24.4,18.2,24.3,18.1z"/>
	<path class="st1" d="M32,60.4c-0.4,0-0.8-0.2-0.9-0.6l-6.3-15.5c-2.4,1.2-8.5,4.2-11.9,6c-4.4,2.6-3.9,8.9-3.9,9
		c0.1,0.6-0.4,1-0.9,1.1c-0.6,0.1-1-0.4-1.1-0.9l0,0c0-0.3-0.7-7.6,4.9-10.9c4.4-2.3,12.9-6.5,12.9-6.5c0.5-0.2,1.1,0,1.3,0.5
		c0,0,0,0,0,0.1L33,59c0.2,0.5,0,1.1-0.5,1.3C32.3,60.4,32.2,60.4,32,60.4z"/>
	<path class="st1" d="M32,60.4c-0.1,0-0.3,0-0.4-0.1c-0.5-0.2-0.8-0.8-0.5-1.3l6.7-16.5c0.2-0.5,0.8-0.8,1.3-0.6c0,0,0.1,0,0.1,0
		c0.1,0,8.6,4.2,12.9,6.5c5.6,3.4,5,10.6,5,10.9c-0.1,0.6-0.5,1-1.1,0.9c-0.6-0.1-1-0.5-0.9-1.1c0-0.1,0.5-6.3-3.9-8.9
		c-3.4-1.8-9.5-4.8-11.8-6l-6.4,15.5C32.8,60.1,32.4,60.4,32,60.4z"/>
	<path class="st1" d="M42.7,53.3c-0.4,0-0.8-0.2-0.9-0.6l-4-9.4c-0.2-0.5,0-1.1,0.5-1.3c0,0,0,0,0,0c0.5-0.2,1.1,0,1.3,0.5l4,9.4
		c0.2,0.5,0,1.1-0.5,1.3C43,53.3,42.9,53.3,42.7,53.3z"/>
	<path class="st1" d="M47.2,60.3h-1c-0.6,0-1-0.4-1-1s0.4-1,1-1v-1.5c0-1.9-1.6-3.5-3.5-3.5c-1.9,0-3.5,1.6-3.5,3.5c0,0,0,0,0,0v1.5
		c0.6,0,1,0.4,1,1s-0.4,1-1,1h-1c-0.6,0-1-0.4-1-1v-2.5c0-3,2.4-5.5,5.5-5.5s5.5,2.4,5.5,5.5c0,0,0,0,0,0v2.5
		C48.2,59.9,47.7,60.3,47.2,60.3z"/>
	<path class="st1" d="M21.3,55.8c-0.1,0-0.2,0-0.3,0c-0.5-0.2-0.8-0.7-0.6-1.3c0,0,0,0,0,0l4-11.9c0.2-0.5,0.7-0.8,1.3-0.6
		c0.5,0.2,0.8,0.7,0.6,1.3l-4,11.9C22.1,55.6,21.7,55.8,21.3,55.8z"/>
	<path class="st1" d="M21.3,60.4c-1.8,0-3.3-1.5-3.3-3.3c0-1.8,1.5-3.3,3.3-3.3c1.8,0,3.3,1.5,3.3,3.3S23.1,60.4,21.3,60.4
		C21.3,60.4,21.3,60.4,21.3,60.4z M21.3,55.8c-0.7,0-1.3,0.6-1.3,1.3c0,0.7,0.6,1.3,1.3,1.3c0.7,0,1.3-0.6,1.3-1.3
		C22.5,56.4,22,55.8,21.3,55.8z"/>
	<path class="st1" d="M35.1,51.3h-6.4c-0.6,0-1-0.4-1-1s0.4-1,1-1h6.4c0.6,0,1,0.4,1,1S35.6,51.3,35.1,51.3z"/>
	<path class="st1" d="M28,26.4c-0.8,0-1.5-0.7-1.5-1.5c0-0.4,0.2-0.8,0.5-1.1c0.6-0.6,1.5-0.6,2.1,0c0.3,0.3,0.4,0.7,0.4,1.1
		c0,0.4-0.2,0.8-0.5,1.1C28.8,26.3,28.4,26.4,28,26.4z"/>
	<path class="st1" d="M35.7,26.4c-0.1,0-0.2,0-0.3,0c-0.3-0.1-0.6-0.2-0.8-0.4c-0.4-0.4-0.5-0.9-0.4-1.4c0-0.1,0-0.2,0.1-0.3
		s0.1-0.2,0.1-0.3c0.1-0.1,0.1-0.2,0.2-0.2c0.1-0.1,0.1-0.1,0.2-0.2l0.3-0.1c0.1,0,0.2-0.1,0.3-0.1c0.5-0.1,1,0.1,1.3,0.4
		c0.1,0.1,0.1,0.1,0.2,0.2c0.1,0.1,0.1,0.2,0.1,0.3c0.3,0.8,0,1.6-0.8,2C36.1,26.4,35.9,26.5,35.7,26.4L35.7,26.4z"/>
	<path class="st1" d="M31.8,33.4c-1.6-0.1-3.1-0.7-4.3-1.7c-0.4-0.4-0.5-1-0.1-1.4c0.3-0.4,0.9-0.5,1.3-0.2c2.2,1.7,4.1,1.7,5.8,0.1
		c0.4-0.4,1-0.4,1.4,0c0.4,0.4,0.4,1,0,1.4C34.8,32.8,33.4,33.4,31.8,33.4z"/>
</g>
</svg>
