<?xml version="1.0" encoding="utf-8"?>
<!-- Generator: Adobe Illustrator 24.3.0, SVG Export Plug-In . SVG Version: 6.00 Build 0)  -->
<svg version="1.1" id="Healthcare_Icons" xmlns="http://www.w3.org/2000/svg" xmlns:xlink="http://www.w3.org/1999/xlink" x="0px"
	 y="0px" viewBox="0 0 64 64" style="enable-background:new 0 0 64 64;" xml:space="preserve">
<style type="text/css">
	.st0{fill:#8CE9E2;}
	.st1{fill:#113E68;}
</style>
<g>
	<circle class="st0" cx="43.7" cy="44.1" r="13.5"/>
	<path class="st1" d="M32,60c-0.6,0-1-0.4-1-1v-1c0-0.8-0.3-1.6-0.9-2.1c-1.3-1-1.8-2-1.6-3c0.1-0.7,0.6-1.5,2.2-2.1
		c1.3-0.5,2.4-1.1,3.5-2c-0.8-0.5-1.7-0.9-2.6-1.2l-1-0.4c-2.6-1.1-5.1-2.5-5.1-4.5c0-1.6,1.6-3,5.3-4.4c6-2.3,6.5-3.7,6.5-4.1
		c0-0.7-1.1-1.9-6.5-3.9c-7-2.5-10.1-4.7-10.1-7s4-2.9,5.3-2.9h0.2l3.1,0.3c0.4,0,0.7,0.3,0.8,0.6c0.1,0.3,0,0.7-0.2,1
		c-0.8,1-2.1,1.6-3.3,1.6c-1,0-1.9-0.5-2.5-1.2c-0.8,0.2-1.3,0.5-1.4,0.6s0.4,2.1,8.8,5.1c4.7,1.7,7.8,3.3,7.8,5.7
		c0,2.1-2.4,4-7.8,6c-3.9,1.5-4,2.5-4,2.6s0.2,1,3.9,2.6l1,0.4c2.3,0.9,4,1.5,4,2.9c0,1.3-1.3,2.3-4.8,3.9c-0.8,0.3-1,0.5-1,0.6
		s0.1,0.5,0.9,1.2c1.1,0.9,1.7,2.2,1.7,3.6v1C33,59.6,32.6,60,32,60z"/>
	<path class="st1" d="M32,60c-0.6,0-1-0.4-1-1v-1c0-1.4,0.6-2.7,1.7-3.6c0.8-0.7,1-1.1,0.9-1.2s-0.2-0.3-0.9-0.6
		c-3.6-1.6-4.9-2.6-4.8-3.9c0-1.5,1.7-2.1,4-2.9l1-0.4c3.7-1.6,3.8-2.5,3.8-2.6s-0.1-1.1-4-2.6c-5.4-2-7.8-3.9-7.8-6
		c0-2.4,3.1-4,7.8-5.7c8.4-3,8.8-4.8,8.8-5.1c-0.4-0.3-0.9-0.6-1.4-0.6c-0.6,0.8-1.5,1.2-2.5,1.3c-1.3,0-2.5-0.6-3.3-1.5
		c-0.4-0.4-0.4-1-0.1-1.4c0.2-0.2,0.4-0.3,0.7-0.3l3.1-0.3h0.2c1.2,0.1,5.3,0.5,5.3,2.9s-3.1,4.5-10.1,7c-5.4,1.9-6.5,3.2-6.5,3.9
		c0,0.4,0.5,1.8,6.5,4.1c3.6,1.4,5.3,2.8,5.3,4.4c0,2-2.6,3.4-5.1,4.5l-1.1,0.4c-0.9,0.3-1.7,0.7-2.5,1.1c1,0.9,2.2,1.5,3.5,2
		c1.6,0.5,2,1.5,2.1,2.1c0.2,1-0.4,2-1.6,3.1c-0.6,0.5-1,1.3-1,2v1C33,59.6,32.6,60,32,60z"/>
	<path class="st1" d="M32,60c-0.6,0-1-0.4-1-1V10.4c0-0.6,0.4-1,1-1s1,0.4,1,1V59C33,59.6,32.6,60,32,60z"/>
	<path class="st1" d="M21.4,28c-0.8,0-1.5-0.2-2.2-0.6c-1.2,0.5-2.5,0.3-3.5-0.4c-1.4,0.6-3,0.2-4-1l0,0c-1.4,0-2.7-0.7-3.3-1.9
		c-0.5,0-0.9,0-1.3-0.1c-1.6-0.4-2.7-1.7-3-3.3c-0.1-0.3,0-0.7,0.3-0.9c0.2-0.2,0.6-0.3,0.9-0.3c7,1.2,12-4.1,14.4-6.6
		c0.3-0.4,0.6-0.7,0.9-0.9c1-1.1,2.6-1.5,4-1.2c1.8,0.6,3.2,2.2,3.6,4.1c1,3.4,3.5,2.9,3.8,2.9c0.3-0.1,0.6,0,0.8,0.2
		c0.2,0.2,0.4,0.5,0.4,0.8c0,3.6-1,6.2-2.9,7.7c-2.3,1.8-5.3,1.5-6.8,1.2C22.7,27.9,22.1,28,21.4,28z M19.2,25.2
		c0.2,0,0.5,0.1,0.6,0.2c0.7,0.6,1.7,0.7,2.5,0.2c0.3-0.2,0.6-0.3,0.9-0.2c0.8,0.2,3.6,0.8,5.6-0.7c1.2-1,2-2.7,2.1-5
		c-1.7-0.1-3.9-1.1-4.9-4.4c-0.2-1.2-1.1-2.2-2.2-2.7c-0.8-0.2-1.6,0.1-2.1,0.7c-0.2,0.2-0.5,0.5-0.8,0.8c-2.4,2.6-7.2,7.7-14.3,7.4
		C7.3,22,8,22.2,8.8,22.1c0.5-0.1,1,0.2,1.2,0.8c0.3,0.9,1.2,1.4,2.1,1.2c0.4,0,0.8,0.2,1,0.5c0.6,1.2,2,0.6,2.3,0.4
		c0.4-0.2,0.8-0.1,1.1,0.1c0,0,1.3,1.1,2.2,0.4C18.8,25.3,19,25.2,19.2,25.2z"/>
	<path class="st1" d="M42.6,28c-0.6,0-1.3-0.2-1.8-0.5c-1.5,0.3-4.5,0.6-6.8-1.2c-2-1.5-2.9-4.1-2.9-7.7c0-0.3,0.1-0.6,0.4-0.8
		c0.2-0.2,0.6-0.3,0.8-0.2c0.3,0.1,2.8,0.5,3.8-2.9c0.4-1.9,1.8-3.5,3.6-4.1c1.4-0.4,3,0.1,4,1.2c0.2,0.2,0.5,0.6,0.9,0.9
		c2.4,2.5,7.4,7.8,14.4,6.6c0.3-0.1,0.7,0.1,0.9,0.3c0.2,0.2,0.3,0.6,0.3,0.9c-0.3,1.6-1.4,2.9-3,3.3c-0.4,0.1-0.9,0.2-1.3,0.2
		c-0.7,1.2-1.9,2-3.3,1.9l0,0c-1,1.2-2.6,1.6-4,1c-1,0.7-2.4,0.9-3.5,0.4C44.1,27.8,43.4,28,42.6,28z M41,25.5
		c0.2,0,0.5,0.1,0.7,0.2c0.8,0.4,1.8,0.4,2.5-0.2c0.4-0.3,0.9-0.3,1.3,0c0.9,0.7,2.2-0.4,2.2-0.4c0.3-0.3,0.7-0.3,1.1-0.1
		c0.3,0.1,1.7,0.7,2.2-0.4c0.2-0.4,0.6-0.6,1-0.5c0.9,0.3,1.9-0.3,2.1-1.2c0,0,0,0,0,0c0.1-0.5,0.7-0.9,1.2-0.7
		c0.7,0.2,1.5,0,2.1-0.5c-7.1,0.3-11.9-4.9-14.3-7.4c-0.3-0.3-0.6-0.6-0.8-0.8c-0.5-0.6-1.3-0.8-2.1-0.7c-1.2,0.5-2,1.5-2.2,2.7
		c-1,3.3-3.2,4.3-4.9,4.4c0.2,2.4,0.9,4.1,2.1,5.1c2,1.5,4.8,0.9,5.6,0.7C40.8,25.5,40.9,25.4,41,25.5z"/>
	<path class="st1" d="M32,11.4c-2,0-3.7-1.7-3.7-3.7C28.3,5.6,30,4,32,4c2,0,3.7,1.7,3.7,3.7c0,0,0,0,0,0C35.7,9.7,34,11.4,32,11.4
		C32,11.4,32,11.4,32,11.4z M32,6c-0.9,0-1.7,0.8-1.7,1.7c0,0.9,0.8,1.7,1.7,1.7c0.9,0,1.7-0.8,1.7-1.7c0,0,0,0,0,0
		C33.7,6.8,32.9,6,32,6z"/>
</g>
</svg>
