<?xml version="1.0" encoding="utf-8"?>
<!-- Generator: Adobe Illustrator 24.3.0, SVG Export Plug-In . SVG Version: 6.00 Build 0)  -->
<svg version="1.1" id="Healthcare_Icons" xmlns="http://www.w3.org/2000/svg" xmlns:xlink="http://www.w3.org/1999/xlink" x="0px"
	 y="0px" viewBox="0 0 64 64" style="enable-background:new 0 0 64 64;" xml:space="preserve">
<style type="text/css">
	.st0{fill:#8CE9E2;}
	.st1{fill:#113E68;}
</style>
<g>
	<circle class="st0" cx="19.2" cy="35.9" r="13.5"/>
	<path class="st1" d="M34.1,41.8h-4.1c-0.6,0-1-0.4-1-1v-2.2h-2.2c-0.6,0-1-0.4-1-1v-4.1c0-0.6,0.4-1,1-1h2.2v-2.2c0-0.6,0.4-1,1-1
		h4.1c0.6,0,1,0.4,1,1v2.2h2.2c0.6,0,1,0.4,1,1v4.1c0,0.6-0.4,1-1,1h-2.2v2.2C35.1,41.3,34.6,41.8,34.1,41.8z M30.9,39.8h2.1v-2.2
		c0-0.6,0.4-1,1-1h2.2v-2.1h-2.2c-0.6,0-1-0.4-1-1v-2.2h-2.1v2.2c0,0.6-0.4,1-1,1h-2.2v2.1h2.2c0.6,0,1,0.4,1,1L30.9,39.8z"/>
	<path class="st1" d="M32,46.5c-6.1,0-11-4.9-11-11s4.9-11,11-11s11,4.9,11,11l0,0C43,41.6,38.1,46.5,32,46.5z M32,26.5
		c-5,0-9,4-9,9s4,9,9,9s9-4,9-9S37,26.5,32,26.5z"/>
	<path class="st1" d="M42.8,13.8H21.2c-1.1,0-2.1-0.9-2.1-2.1V9.6c0-1.1,0.9-2.1,2.1-2.1h21.6c1.1,0,2.1,0.9,2.1,2.1v2.1
		C44.9,12.9,43.9,13.8,42.8,13.8z M21.2,9.5C21.2,9.5,21.1,9.6,21.2,9.5l-0.1,2.2c0,0,0,0.1,0.1,0.1h21.6c0,0,0.1,0,0.1-0.1V9.6
		c0,0,0-0.1-0.1-0.1H21.2z"/>
	<path class="st1" d="M29.4,13.7c-0.6,0-1-0.4-1-1v-4c0-0.6,0.4-1,1-1s1,0.4,1,1v4C30.4,13.2,29.9,13.7,29.4,13.7z"/>
	<path class="st1" d="M24,13.7c-0.6,0-1-0.4-1-1v-4c0-0.6,0.4-1,1-1s1,0.4,1,1v4C25,13.2,24.6,13.7,24,13.7z"/>
	<path class="st1" d="M40,13.7c-0.6,0-1-0.4-1-1v-4c0-0.6,0.4-1,1-1s1,0.4,1,1v4C41,13.2,40.6,13.7,40,13.7z"/>
	<path class="st1" d="M34.7,13.7c-0.6,0-1-0.4-1-1v-4c0-0.6,0.4-1,1-1s1,0.4,1,1v4C35.7,13.2,35.2,13.7,34.7,13.7z"/>
	<path class="st1" d="M40.8,17.2H23.2c-0.6,0-1-0.4-1-1v-2.7c0-0.6,0.4-1,1-1s1,0.4,1,1v1.7h15.7v-1.7c0-0.6,0.4-1,1-1s1,0.4,1,1
		v2.7C41.8,16.8,41.4,17.2,40.8,17.2z"/>
	<path class="st1" d="M44.5,56.5H19.5c-1.9,0-3.4-1.5-3.4-3.4V19.7c0-2.4,2-4.4,4.4-4.4l0,0h23c2.4,0,4.4,2,4.4,4.4l0,0v33.4
		C47.9,54.9,46.3,56.5,44.5,56.5z M20.5,17.3c-1.3,0-2.4,1.1-2.4,2.4c0,0,0,0,0,0v33.4c0,0.8,0.6,1.4,1.4,1.4h25
		c0.8,0,1.4-0.6,1.4-1.4V19.7c0-1.3-1.1-2.4-2.4-2.4l0,0L20.5,17.3z"/>
</g>
</svg>
