<?xml version="1.0" encoding="utf-8"?>
<!-- Generator: Adobe Illustrator 24.3.0, SVG Export Plug-In . SVG Version: 6.00 Build 0)  -->
<svg version="1.1" id="Healthcare_Icons" xmlns="http://www.w3.org/2000/svg" xmlns:xlink="http://www.w3.org/1999/xlink" x="0px"
	 y="0px" viewBox="0 0 64 64" style="enable-background:new 0 0 64 64;" xml:space="preserve">
<style type="text/css">
	.st0{fill:#8CE9E2;}
	.st1{fill:#113E68;}
</style>
<g>
	<circle class="st0" cx="47" cy="29.9" r="13.5"/>
	<path class="st1" d="M53.2,38.9h-2.5c-0.6,0-1-0.4-1-1v-5.4c0-0.3-0.2-1.6-0.5-3.5c-0.1-0.3,0-0.6,0.2-0.8c0.2-0.2,0.5-0.4,0.8-0.4
		h3.1c1.2,0,2.2,1,2.2,2.2v6.7C55.3,37.9,54.4,38.9,53.2,38.9z M51.6,36.9h1.5c0.1,0,0.2-0.1,0.2-0.2l0,0v-6.7
		c0-0.1-0.1-0.2-0.2-0.2l0,0h-1.9c0.2,1.5,0.3,2.4,0.4,2.5s0,0.1,0,0.1L51.6,36.9z"/>
	<path class="st1" d="M50.6,38.3h-37c-0.6,0-1-0.4-1-1v-4.8c0-0.6,0.4-1,1-1h37c0.6,0,1,0.4,1,1v4.8C51.6,37.8,51.2,38.3,50.6,38.3z
		 M14.6,36.3h35v-2.8h-35V36.3z"/>
	<path class="st1" d="M41.7,38.3H21.3c-0.6,0-1-0.4-1-1s0.4-1,1-1h20.4c0.6,0,1,0.4,1,1S42.3,38.3,41.7,38.3z"/>
	<path class="st1" d="M41.7,47.8H21.3c-0.6,0-1.1-0.4-1.2-1c-0.1-0.9,0.7-1.2,1.7-1.4v-7.7c0-0.6,0.4-1,1-1s1,0.4,1,1v8h15.5v-8
		c0-0.6,0.4-1,1-1s1,0.4,1,1v7.7c1,0.2,1.7,0.5,1.7,1.4C42.8,47.4,42.3,47.8,41.7,47.8z"/>
	<path class="st1" d="M50.6,43.2h-37c-0.6,0-1-0.4-1-1v-4.9c0-0.6,0.4-1,1-1h37c0.6,0,1,0.4,1,1v4.9C51.6,42.8,51.2,43.2,50.6,43.2z
		 M40.2,41.2h9.4v-2.9h-35v2.9H40.2z"/>
	<path class="st1" d="M41.7,53.8H22.5c-1.4,0-2.6-0.5-3.6-1.5c-0.6-0.6-1.4-0.9-2.2-0.9h-1.9c-1.2,0-2.2-1-2.2-2.2c0,0,0,0,0,0v-8
		c0-0.6,0.4-1,1-1s1,0.4,1,1v8c0,0.1,0.1,0.2,0.2,0.2c0,0,0,0,0,0h1.9c1.4,0,2.6,0.5,3.6,1.5c0.6,0.6,1.4,0.9,2.2,0.9h19.3
		c0.8,0,1.6-0.3,2.2-0.9c1-1,2.2-1.5,3.6-1.5h1.9c0.1,0,0.2-0.1,0.2-0.2l0,0v-8c0-0.6,0.4-1,1-1s1,0.4,1,1v8c0,1.2-1,2.2-2.2,2.2
		l0,0h-1.9c-0.8,0-1.6,0.3-2.2,0.9C44.4,53.3,43.1,53.8,41.7,53.8z"/>
	<path class="st1" d="M41.7,38.3H21.3c-0.6,0-1-0.4-1-1s0.4-1,1-1h20.4c0.6,0,1,0.4,1,1S42.3,38.3,41.7,38.3z"/>
	<path class="st1" d="M41.7,47.8H21.3c-0.6,0-1.1-0.4-1.2-1c-0.1-1.1,1.2-1.3,2.5-1.5c0.4-0.1,0.8,0.1,1,0.5h15.7
		c0.2-0.4,0.6-0.6,1-0.5c1.3,0.2,2.6,0.4,2.5,1.5C42.8,47.4,42.3,47.8,41.7,47.8z M41.3,47.5L41.3,47.5z"/>
	<path class="st1" d="M50.6,38.3c-0.6,0-1-0.4-1-1v-4.7c-0.1-0.8-1.3-10.2-4.3-14.8H18.9c-3,4.5-4.2,14-4.3,14.8v4.7
		c0,0.6-0.4,1-1,1s-1-0.4-1-1v-4.9c0-0.5,1.3-11.2,5-16.2c0.2-0.3,0.5-0.4,0.8-0.4h27.5c0.3,0,0.6,0.1,0.8,0.4
		c3.7,5,4.9,15.8,5,16.2c0,0,0,0.1,0,0.1v4.8C51.6,37.8,51.2,38.3,50.6,38.3z"/>
	<path class="st1" d="M49.4,58.5H46c-1.2,0-2.2-1-2.2-2.2v-4.9c0-0.6,0.4-1,1-1s1,0.4,1,1v4.9c0,0.1,0.1,0.2,0.2,0.2l0,0h3.5
		c0.1,0,0.2-0.1,0.2-0.2l0,0v-7.1c0-0.6,0.4-1,1-1s1,0.4,1,1v7.1C51.7,57.6,50.7,58.5,49.4,58.5C49.4,58.5,49.4,58.5,49.4,58.5z"/>
	<path class="st1" d="M18.2,58.5h-3.5c-1.2,0-2.2-1-2.2-2.2l0,0v-7.1c0-0.6,0.4-1,1-1s1,0.4,1,1v7.1c0,0.1,0.1,0.2,0.2,0.2
		c0,0,0,0,0,0h3.5c0.1,0,0.2-0.1,0.2-0.2l0,0v-4.9c0-0.6,0.4-1,1-1s1,0.4,1,1v4.9C20.4,57.5,19.4,58.5,18.2,58.5z"/>
	<path class="st1" d="M53.2,38.9h-2.5c-0.6,0-1-0.4-1-1s0.4-1,1-1h2.5c0.1,0,0.2-0.1,0.2-0.2l0,0v-6.7c0-0.1-0.1-0.2-0.2-0.2l0,0
		h-2.7c-0.6,0-1-0.4-1-1s0.4-1,1-1h2.7c1.2,0,2.2,1,2.2,2.2v6.7C55.3,37.9,54.4,38.9,53.2,38.9z"/>
	<path class="st1" d="M14,38.9h-3.1c-1.2,0-2.2-1-2.2-2.2v-6.7c0-1.2,1-2.2,2.2-2.2h2.5c0.6,0,1,0.4,1,1v5.4c0,0.3,0.2,1.6,0.6,3.5
		c0.1,0.3,0,0.6-0.2,0.8C14.6,38.8,14.3,38.9,14,38.9z M10.9,29.9c-0.1,0-0.2,0.1-0.2,0.2l0,0v6.7c0,0.1,0.1,0.2,0.2,0.2
		c0,0,0,0,0,0h1.9c-0.2-1.5-0.4-2.4-0.4-2.5s0-0.1,0-0.1v-4.5L10.9,29.9z"/>
	<path class="st1" d="M13.5,38.9h-2.7c-1.2,0-2.2-1-2.2-2.2v-6.7c0-1.2,1-2.2,2.2-2.2h2.5c0.6,0,1,0.4,1,1s-0.4,1-1,1h-2.5
		c-0.1,0-0.2,0.1-0.2,0.2l0,0v6.7c0,0.1,0.1,0.2,0.2,0.2c0,0,0,0,0,0h2.7c0.6,0,1,0.4,1,1S14.1,38.9,13.5,38.9z"/>
	<path class="st1" d="M47.2,21.5H17c-0.6,0-1-0.4-1-1s0.4-1,1-1h30.2c0.6,0,1,0.4,1,1S47.7,21.5,47.2,21.5z"/>
	<path class="st1" d="M50.6,33.5h-37c-0.6,0-1-0.4-1-1s0.4-1,1-1h37c0.6,0,1,0.4,1,1S51.2,33.5,50.6,33.5z"/>
	<path class="st1" d="M45.1,17.8h-9.6c-0.6,0-1-0.4-1-1s0.4-1,1-1h1.4v-2.1h-1.4c-0.6,0-1-0.4-1-1s0.4-1,1-1h9.3
		c2.7,0,2.7,2.7,2.7,3.8C47.4,16.7,46.4,17.8,45.1,17.8z M38.9,15.8h6.2c0.2,0,0.4-0.2,0.4-0.4c0-1.8-0.3-1.8-0.7-1.8h-5.9V15.8z"/>
	<path class="st1" d="M28.7,17.8h-9.6c-1.3,0-2.4-1.1-2.4-2.4c0-1,0-3.8,2.7-3.8h9.3c0.6,0,1,0.4,1,1s-0.4,1-1,1h-1.4v2.1h1.4
		c0.6,0,1,0.4,1,1S29.3,17.8,28.7,17.8z M19.4,13.6c-0.4,0-0.7,0-0.7,1.8c0,0.2,0.2,0.4,0.4,0.4h6.2v-2.1H19.4z"/>
	<path class="st1" d="M37.9,17.8H26.3c-0.6,0-1-0.4-1-1v-4.1c0-0.6,0.4-1,1-1h11.6c0.6,0,1,0.4,1,1v4.1
		C38.9,17.3,38.4,17.8,37.9,17.8z M27.3,15.8h9.6v-2.1h-9.6V15.8z"/>
	<path class="st1" d="M32.2,9.6c-0.6,0-1-0.4-1-1V4.7c0-0.6,0.4-1,1-1s1,0.4,1,1v3.9C33.2,9.1,32.8,9.6,32.2,9.6z"/>
	<path class="st1" d="M37.2,9.6c-0.6,0-1-0.4-1-1c0-0.3,0.1-0.5,0.3-0.7l2-2c0.4-0.4,1-0.4,1.4,0c0,0,0,0,0,0c0.4,0.4,0.4,1,0.1,1.4
		l-2.1,2.1C37.7,9.4,37.5,9.5,37.2,9.6z"/>
	<path class="st1" d="M27.3,9.6c-0.3,0-0.5-0.1-0.7-0.3l-2.1-2.1c-0.4-0.4-0.3-1.1,0.1-1.4c0.4-0.3,0.9-0.3,1.3,0L28,7.8
		c0.4,0.4,0.4,1,0,1.4c0,0,0,0,0,0C27.8,9.4,27.5,9.6,27.3,9.6z"/>
</g>
</svg>
