<?xml version="1.0" encoding="utf-8"?>
<!-- Generator: Adobe Illustrator 24.3.0, SVG Export Plug-In . SVG Version: 6.00 Build 0)  -->
<svg version="1.1" id="Healthcare_Icons" xmlns="http://www.w3.org/2000/svg" xmlns:xlink="http://www.w3.org/1999/xlink" x="0px"
	 y="0px" viewBox="0 0 64 64" style="enable-background:new 0 0 64 64;" xml:space="preserve">
<style type="text/css">
	.st0{fill:#113E68;}
	.st1{fill:#8CE9E2;}
</style>
<g>
	<path class="st0" d="M29.3,55.2c-13,0-23.5-10.5-23.5-23.4c0-13,10.5-23.5,23.4-23.5c13,0,23.5,10.5,23.5,23.4c0,1.7-0.2,3.4-0.5,5
		c-0.1,0.5-0.6,0.9-1.2,0.8c-0.5-0.1-0.9-0.6-0.8-1.2c0,0,0,0,0,0c2.5-11.6-4.9-23-16.4-25.5s-23,4.9-25.5,16.4s4.9,23,16.4,25.5
		c1.5,0.3,3,0.5,4.5,0.5c1.1,0,2.3-0.1,3.4-0.3c0.6-0.1,1.1,0.3,1.2,0.8c0.1,0.6-0.3,1.1-0.8,1.2l0,0C31.8,55.1,30.5,55.2,29.3,55.2
		z"/>
	<circle class="st1" cx="29.3" cy="31.8" r="13.5"/>
	<path class="st0" d="M29.3,21.1c-0.6,0-1-0.4-1-1v-2.7c0-0.6,0.4-1,1-1s1,0.4,1,1v2.7C30.3,20.6,29.8,21.1,29.3,21.1z"/>
	<path class="st0" d="M43.7,32.8H41c-0.6,0-1-0.4-1-1s0.4-1,1-1h2.7c0.6,0,1,0.4,1,1S44.3,32.8,43.7,32.8L43.7,32.8z"/>
	<path class="st0" d="M29.3,47.1c-0.6,0-1-0.4-1-1v-2.7c0-0.6,0.4-1,1-1s1,0.4,1,1v2.7C30.3,46.7,29.8,47.1,29.3,47.1z"/>
	<path class="st0" d="M17.6,32.8h-2.7c-0.6,0-1-0.4-1-1s0.4-1,1-1h2.7c0.6,0,1,0.4,1,1S18.2,32.8,17.6,32.8z"/>
	<path class="st0" d="M35.9,32.8h-6.6c-0.3,0-0.6-0.1-0.8-0.4l-6.6-8.1c-0.3-0.4-0.3-1.1,0.1-1.4c0,0,0,0,0,0
		c0.4-0.3,1.1-0.3,1.4,0.1l6.3,7.8h6.1c0.6,0,1,0.4,1,1S36.4,32.8,35.9,32.8z"/>
	<path class="st0" d="M29.3,51.1C18.5,51.2,9.8,42.5,9.7,31.8C9.7,21,18.3,12.2,29.1,12.2s19.5,8.6,19.6,19.4c0,1.7-0.2,3.5-0.7,5.1
		c-0.1,0.5-0.7,0.9-1.2,0.7c0,0,0,0,0,0c-0.5-0.1-0.8-0.7-0.7-1.2c0.4-1.4,0.6-2.9,0.6-4.4c0-9.6-7.7-17.4-17.3-17.5
		S11.9,22,11.8,31.6c0,9.6,7.7,17.4,17.3,17.5c1.2,0,2.3-0.1,3.5-0.3c0.6-0.1,1.1,0.3,1.2,0.8c0.1,0.6-0.3,1.1-0.8,1.2
		C31.8,51,30.5,51.1,29.3,51.1z"/>
	<path class="st0" d="M45.8,55.7h-8.5c-0.4,0-0.8-0.2-0.9-0.6c-0.2-0.4-0.1-0.8,0.2-1.1l7.4-8c0.5-0.6,0.8-1.3,0.8-2.1
		c0-1.7-1.4-3.1-3.1-3.1h0h-0.4c-1.7,0-3.1,1.4-3.1,3.1v0.9c0,0.6-0.4,1-1,1s-1-0.4-1-1v-0.9c0-2.8,2.3-5.1,5.1-5.1h0.4
		c2.8,0,5.1,2.3,5.1,5.1c0,1.3-0.5,2.5-1.4,3.5l-5.9,6.4h6.2c0.6,0,1,0.4,1,1S46.4,55.7,45.8,55.7L45.8,55.7z"/>
	<path class="st0" d="M55,55.7c-0.6,0-1-0.4-1-1v-2.5h-6.4c-0.6,0-1-0.4-1-1c0-0.2,0.1-0.4,0.2-0.6l7.4-10.7
		c0.3-0.5,0.9-0.6,1.4-0.2c0.3,0.2,0.4,0.5,0.4,0.8v9.7h1.1c0.6,0,1,0.4,1,1s-0.4,1-1,1H56v2.5C56,55.2,55.6,55.7,55,55.7z
		 M49.5,50.1H54v-6.5L49.5,50.1z"/>
</g>
</svg>
