<?xml version="1.0" encoding="utf-8"?>
<!-- Generator: Adobe Illustrator 24.3.0, SVG Export Plug-In . SVG Version: 6.00 Build 0)  -->
<svg version="1.1" id="Healthcare_Icons" xmlns="http://www.w3.org/2000/svg" xmlns:xlink="http://www.w3.org/1999/xlink" x="0px"
	 y="0px" viewBox="0 0 64 64" style="enable-background:new 0 0 64 64;" xml:space="preserve">
<style type="text/css">
	.st0{fill:#8CE9E2;}
	.st1{fill:#113E68;}
</style>
<g>
	<circle class="st0" cx="42.6" cy="25.6" r="13.5"/>
	<path class="st1" d="M39.8,23.9H29.5c-0.6,0-1-0.4-1-1V12.6c0-0.6,0.4-1,1-1s1,0.4,1,1v9.3h9.3c0.6,0,1,0.4,1,1
		S40.3,23.9,39.8,23.9z"/>
	<path class="st1" d="M26.9,54.9H10.7c-0.6,0-1-0.4-1-1V12.6c0-0.6,0.4-1,1-1h18.8c0.3,0,0.5,0.1,0.7,0.3l10.3,10.3
		c0.2,0.2,0.3,0.4,0.3,0.7v30.9c0,0.6-0.4,1-1,1L26.9,54.9z M11.7,52.9h27.1V23.4l-9.7-9.7H11.7L11.7,52.9z"/>
	<path class="st1" d="M49.6,53.8c-0.4,0-0.7-0.2-0.9-0.5l-0.5-1c-2.3-4.2-2.4-4.6-2.4-5V18.7c0-1.3,1.1-2.4,2.4-2.4H51
		c1.3,0,2.4,1.1,2.4,2.4v28.6c0,0.4-0.1,0.7-2.3,4.9c-0.3,0.5-0.5,0.9-0.5,1C50.3,53.6,50,53.8,49.6,53.8L49.6,53.8z M47.8,47.2
		c0.2,0.5,1.2,2.3,1.8,3.5c0.6-1.2,1.6-3,1.8-3.5V18.7c0-0.2-0.2-0.4-0.4-0.4h-2.8c-0.2,0-0.4,0.2-0.4,0.4L47.8,47.2z"/>
	<path class="st1" d="M52.3,39h-5.6c-0.6,0-1-0.4-1-1s0.4-1,1-1h5.6c0.6,0,1,0.4,1,1S52.9,39,52.3,39z M52.3,35.6h-5.6
		c-0.6,0-1-0.4-1-1s0.4-1,1-1h5.6c0.6,0,1,0.4,1,1S52.9,35.6,52.3,35.6z"/>
	<path class="st1" d="M51.3,18.3c-0.6,0-1-0.4-1-1v-1.9c0-0.4-0.4-0.7-0.8-0.6c-0.3,0-0.6,0.3-0.6,0.6v1.9c0,0.6-0.4,1-1,1
		s-1-0.4-1-1v-1.9c0.1-1.5,1.4-2.6,2.9-2.6c1.4,0.1,2.5,1.2,2.6,2.6v1.9C52.3,17.9,51.8,18.3,51.3,18.3z"/>
	<path class="st1" d="M52.3,48.3h-5.6c-0.6,0-1-0.4-1-1s0.4-1,1-1h5.6c0.6,0,1,0.4,1,1S52.9,48.3,52.3,48.3z"/>
	<path class="st1" d="M44.3,31.2c-0.6,0-1-0.4-1-1v-6.7c0-0.3,0.2-0.6,0.4-0.8l2.5-1.7c0.5-0.3,1.1-0.2,1.4,0.3
		c0.3,0.5,0.2,1.1-0.3,1.4l-2,1.4v6.1C45.4,30.7,44.9,31.2,44.3,31.2C44.4,31.2,44.3,31.2,44.3,31.2z"/>
	<path class="st1" d="M22.2,26.5h-6.5c-0.6,0-1-0.4-1-1v-5.1c0-0.6,0.4-1,1-1h6.5c0.6,0,1,0.4,1,1v5.1C23.2,26,22.7,26.5,22.2,26.5z
		 M16.6,24.5h4.5v-3.1h-4.5V24.5z"/>
	<path class="st1" d="M22.2,37.2h-6.5c-0.6,0-1-0.4-1-1v-5.1c0-0.6,0.4-1,1-1h6.5c0.6,0,1,0.4,1,1v5.1
		C23.2,36.8,22.7,37.2,22.2,37.2z M16.6,35.2h4.5v-3.1h-4.5V35.2z"/>
	<path class="st1" d="M33.2,36.8h-6.4c-0.6,0-1-0.4-1-1s0.4-1,1-1h6.4c0.6,0,1,0.4,1,1S33.7,36.8,33.2,36.8z"/>
	<path class="st1" d="M34.1,32.6h-7.4c-0.6,0-1-0.4-1-1s0.4-1,1-1h7.4c0.6,0,1,0.4,1,1S34.7,32.6,34.1,32.6z"/>
	<path class="st1" d="M22.2,48h-6.5c-0.6,0-1-0.4-1-1v-5c0-0.6,0.4-1,1-1h6.5c0.6,0,1,0.4,1,1v5C23.2,47.6,22.7,48,22.2,48z
		 M16.6,46h4.5v-3h-4.5V46z"/>
	<path class="st1" d="M33.2,47.6h-6.4c-0.6,0-1-0.4-1-1s0.4-1,1-1h6.4c0.6,0,1,0.4,1,1S33.7,47.6,33.2,47.6z"/>
	<path class="st1" d="M34.1,43.4h-7.4c-0.6,0-1-0.4-1-1s0.4-1,1-1h7.4c0.6,0,1,0.4,1,1S34.7,43.4,34.1,43.4z"/>
</g>
</svg>
