<?xml version="1.0" encoding="utf-8"?>
<!-- Generator: Adobe Illustrator 24.3.0, SVG Export Plug-In . SVG Version: 6.00 Build 0)  -->
<svg version="1.1" id="Healthcare_Icons" xmlns="http://www.w3.org/2000/svg" xmlns:xlink="http://www.w3.org/1999/xlink" x="0px"
	 y="0px" viewBox="0 0 64 64" style="enable-background:new 0 0 64 64;" xml:space="preserve">
<style type="text/css">
	.st0{fill:#8CE9E2;}
	.st1{fill:#113E68;}
</style>
<g>
	<circle class="st0" cx="22.8" cy="40" r="13.5"/>
	<path class="st1" d="M34.6,34.4H30c-0.6,0-1-0.4-1-1v-2.5h-2.5c-0.6,0-1-0.4-1-1v-4.5c0-0.6,0.4-1,1-1h2.5v-2.5c0-0.6,0.4-1,1-1
		h4.5c0.6,0,1,0.4,1,1v2.5h2.5c0.6,0,1,0.4,1,1v4.5c0,0.6-0.4,1-1,1h-2.5v2.5C35.6,33.9,35.1,34.4,34.6,34.4z M31.1,32.4h2.5v-2.5
		c0-0.6,0.4-1,1-1h2.5v-2.5h-2.5c-0.6,0-1-0.4-1-1v-2.5H31v2.5c0,0.6-0.4,1-1,1h-2.5v2.5h2.5c0.6,0,1,0.4,1,1V32.4z"/>
	<path class="st1" d="M32.3,40.1c-6.9,0-12.5-5.6-12.5-12.5s5.6-12.5,12.5-12.5s12.5,5.6,12.5,12.5C44.8,34.5,39.2,40.1,32.3,40.1z
		 M32.3,17.1c-5.8,0-10.5,4.7-10.5,10.5s4.7,10.5,10.5,10.5s10.5-4.7,10.5-10.5c0,0,0,0,0,0C42.8,21.8,38.1,17.1,32.3,17.1
		L32.3,17.1z"/>
	<path class="st1" d="M39.6,45.3H25c-0.6,0-1-0.4-1-1s0.4-1,1-1h14.6c0.6,0,1,0.4,1,1S40.1,45.3,39.6,45.3z"/>
	<path class="st1" d="M32.3,57.8c-0.2,0-0.4-0.1-0.5-0.2l-9.9-6c-6-3.6-9.6-10.1-9.7-17.1V16.8c0-0.6,0.4-1,1-1c3.9,0,7-3.1,7-7
		c0-0.6,0.4-1,1-1h22.2c0.6,0,1,0.4,1,1c0,3.9,3.1,7,7,7c0.6,0,1,0.4,1,1v17.7c0,7-3.7,13.5-9.7,17.1l-9.9,6
		C32.7,57.7,32.5,57.8,32.3,57.8z M14.2,17.7v16.8c0,6.3,3.3,12.2,8.7,15.4l9.4,5.7l9.4-5.7c5.4-3.3,8.7-9.1,8.7-15.4V17.7
		c-4.2-0.4-7.6-3.8-8-8H22.1C21.7,13.9,18.4,17.2,14.2,17.7z"/>
</g>
</svg>
