<?xml version="1.0" encoding="utf-8"?>
<!-- Generator: Adobe Illustrator 24.3.0, SVG Export Plug-In . SVG Version: 6.00 Build 0)  -->
<svg version="1.1" id="Healthcare_Icons" xmlns="http://www.w3.org/2000/svg" xmlns:xlink="http://www.w3.org/1999/xlink" x="0px"
	 y="0px" viewBox="0 0 64 64" style="enable-background:new 0 0 64 64;" xml:space="preserve">
<style type="text/css">
	.st0{fill:#8CE9E2;}
	.st1{fill:#113E68;}
</style>
<g>
	<circle class="st0" cx="27.7" cy="33.6" r="13.5"/>
	<path class="st1" d="M28.7,44h-17c-0.6,0-1-0.4-1-1s0.4-1,1-1h17c0.6,0,1,0.4,1,1S29.3,44,28.7,44z"/>
	<path class="st1" d="M23.7,33.8h-12c-0.6,0-1-0.4-1-1s0.4-1,1-1h12c0.6,0,1,0.4,1,1S24.3,33.8,23.7,33.8z"/>
	<path class="st1" d="M15.5,38.9h-3.8c-0.6,0-1-0.4-1-1s0.4-1,1-1h3.8c0.6,0,1,0.4,1,1S16.1,38.9,15.5,38.9z"/>
	<path class="st1" d="M28.7,38.9h-9c-0.6,0-1-0.4-1-1s0.4-1,1-1h9c0.6,0,1,0.4,1,1S29.3,38.9,28.7,38.9z"/>
	<path class="st1" d="M15.5,49.1h-3.8c-0.6,0-1-0.4-1-1s0.4-1,1-1h3.8c0.6,0,1,0.4,1,1S16.1,49.1,15.5,49.1z"/>
	<path class="st1" d="M28.7,49.1h-9c-0.6,0-1-0.4-1-1s0.4-1,1-1h9c0.6,0,1,0.4,1,1S29.3,49.1,28.7,49.1z"/>
	<path class="st1" d="M47.8,37.8c-0.2,0-0.5-0.1-0.6-0.2l-5.9-4.8h-9.9c-1.5,0-2.7-1.2-2.8-2.7v-24c0-1.5,1.2-2.7,2.8-2.7H57
		c1.5,0,2.7,1.2,2.7,2.7c0,0,0,0,0,0v24c0,1.5-1.2,2.7-2.7,2.7l0,0h-8.2v4c0,0.4-0.2,0.7-0.6,0.9C48.1,37.8,47.9,37.8,47.8,37.8z
		 M31.4,5.4c-0.4,0-0.7,0.3-0.8,0.7v24c0,0.4,0.3,0.7,0.8,0.7h10.3c0.2,0,0.5,0.1,0.6,0.2l4.5,3.6v-2.9c0-0.6,0.4-1,1-1H57
		c0.4,0,0.7-0.3,0.7-0.7c0,0,0,0,0,0v-24c0-0.4-0.3-0.7-0.7-0.7H31.4z"/>
	<path class="st1" d="M22.5,59.6c-0.2,0-0.5-0.1-0.6-0.2L16,54.6H7c-1.5,0-2.7-1.2-2.8-2.7v-24c0-1.5,1.3-2.7,2.8-2.7h22.6
		c0.6,0,1,0.4,1,1s-0.4,1-1,1H7c-0.4,0-0.7,0.3-0.8,0.7v24c0,0.4,0.3,0.7,0.8,0.7h9.3c0.2,0,0.5,0.1,0.6,0.2l4.5,3.7v-2.9
		c0-0.6,0.4-1,1-1h10.2c0.4,0,0.7-0.3,0.8-0.7V33.2c0-0.6,0.4-1,1-1s1,0.4,1,1v18.7c0,1.5-1.2,2.7-2.8,2.7h-9.2v4
		c0,0.4-0.2,0.7-0.6,0.9C22.8,59.5,22.6,59.6,22.5,59.6z"/>
	<path class="st1" d="M46.9,26.5h-5.4c-0.6,0-1-0.4-1-1v-3.2h-3.2c-0.6,0-1-0.4-1-1v-5.4c0-0.6,0.4-1,1-1h3.2v-3.2c0-0.6,0.4-1,1-1
		h5.4c0.6,0,1,0.4,1,1v3.2h3.2c0.6,0,1,0.4,1,1v5.4c0,0.6-0.4,1-1,1h-3.2v3.2C47.9,26,47.5,26.5,46.9,26.5z M42.5,24.5h3.4v-3.2
		c0-0.6,0.4-1,1-1h3.2v-3.4h-3.2c-0.6,0-1-0.4-1-1v-3.2h-3.4v3.2c0,0.6-0.4,1-1,1h-3.2v3.4h3.2c0.6,0,1,0.4,1,1V24.5z"/>
</g>
</svg>
