<svg xmlns="http://www.w3.org/2000/svg" xmlns:xlink="http://www.w3.org/1999/xlink" width="300" zoomAndPan="magnify" viewBox="0 0 224.87999 149.999998" height="200" preserveAspectRatio="xMidYMid meet" version="1.0"><defs><clipPath id="8f2fbaa5af"><path d="M 0 0.0390625 L 224.761719 0.0390625 L 224.761719 149.960938 L 0 149.960938 Z M 0 0.0390625 " clip-rule="nonzero"/></clipPath><clipPath id="e38b604766"><path d="M 54 73 L 215.074219 73 L 215.074219 91 L 54 91 Z M 54 73 " clip-rule="nonzero"/></clipPath><clipPath id="ad981298d1"><path d="M 132 107 L 142 107 L 142 119.226562 L 132 119.226562 Z M 132 107 " clip-rule="nonzero"/></clipPath><clipPath id="f116aacd72"><path d="M 124 107 L 134 107 L 134 119.226562 L 124 119.226562 Z M 124 107 " clip-rule="nonzero"/></clipPath><clipPath id="4104b4f0c6"><path d="M 9.683594 102 L 15 102 L 15 115 L 9.683594 115 Z M 9.683594 102 " clip-rule="nonzero"/></clipPath><clipPath id="d8e1d363b2"><path d="M 9.683594 15.03125 L 78 15.03125 L 78 91 L 9.683594 91 Z M 9.683594 15.03125 " clip-rule="nonzero"/></clipPath></defs><g clip-path="url(#8f2fbaa5af)"><path fill="#ffffff" d="M 0 0.0390625 L 224.878906 0.0390625 L 224.878906 149.960938 L 0 149.960938 Z M 0 0.0390625 " fill-opacity="1" fill-rule="nonzero"/><path fill="#ffffff" d="M 0 0.0390625 L 224.878906 0.0390625 L 224.878906 149.960938 L 0 149.960938 Z M 0 0.0390625 " fill-opacity="1" fill-rule="nonzero"/></g><g clip-path="url(#e38b604766)"><path fill="#00858a" d="M 54.605469 90.140625 L 57.734375 73.871094 C 58.292969 73.757812 58.851562 73.648438 59.519531 73.648438 C 60.191406 73.535156 60.972656 73.535156 61.757812 73.535156 C 62.539062 73.535156 63.320312 73.535156 63.992188 73.757812 C 64.773438 73.984375 65.445312 74.207031 66.003906 74.652344 C 66.449219 75.097656 66.785156 75.542969 67.121094 75.988281 C 67.34375 76.546875 67.457031 77.214844 67.457031 77.992188 C 67.457031 78.996094 67.230469 79.886719 66.894531 80.558594 C 66.449219 81.335938 66.003906 82.003906 65.332031 82.453125 C 64.660156 83.007812 63.878906 83.34375 62.984375 83.675781 C 62.089844 83.898438 61.199219 84.011719 60.191406 84.011719 C 59.632812 84.011719 59.074219 84.011719 58.628906 83.898438 L 57.398438 90.140625 Z M 60.191406 75.988281 L 59.074219 81.558594 C 59.296875 81.558594 59.519531 81.671875 59.746094 81.671875 C 60.078125 81.671875 60.304688 81.671875 60.636719 81.671875 C 61.421875 81.671875 62.089844 81.558594 62.648438 81.226562 C 63.320312 80.890625 63.765625 80.445312 64.101562 80 C 64.4375 79.441406 64.660156 78.886719 64.660156 78.21875 C 64.660156 77.546875 64.4375 77.101562 64.214844 76.769531 C 63.992188 76.433594 63.65625 76.210938 63.207031 75.988281 C 62.761719 75.875 62.316406 75.765625 61.757812 75.765625 C 61.085938 75.765625 60.527344 75.875 60.191406 75.988281 Z M 78.183594 90.140625 L 75.5 90.140625 C 75.5 89.804688 75.5 89.359375 75.613281 88.914062 C 75.613281 88.46875 75.613281 87.910156 75.722656 87.464844 L 75.613281 87.464844 C 75.054688 88.582031 74.382812 89.25 73.601562 89.695312 C 72.929688 90.140625 72.148438 90.363281 71.367188 90.363281 C 70.695312 90.363281 70.023438 90.25 69.464844 89.917969 C 69.019531 89.582031 68.574219 89.027344 68.238281 88.46875 C 68.015625 87.800781 67.789062 87.132812 67.789062 86.351562 C 67.789062 85.347656 68.015625 84.347656 68.347656 83.34375 C 68.683594 82.339844 69.242188 81.449219 69.914062 80.558594 C 70.695312 79.777344 71.589844 79.109375 72.59375 78.664062 C 73.601562 78.21875 74.832031 77.992188 76.28125 77.992188 C 76.953125 77.992188 77.625 77.992188 78.183594 78.105469 C 78.851562 78.21875 79.410156 78.328125 79.859375 78.441406 L 78.628906 84.679688 C 78.519531 85.347656 78.40625 85.90625 78.292969 86.574219 C 78.292969 87.242188 78.183594 87.910156 78.183594 88.46875 C 78.183594 89.136719 78.183594 89.695312 78.183594 90.140625 Z M 76.058594 83.34375 L 76.617188 80.222656 C 76.394531 80.222656 75.949219 80.113281 75.5 80.113281 C 74.832031 80.113281 74.160156 80.335938 73.601562 80.667969 C 73.042969 81.003906 72.59375 81.449219 72.148438 82.003906 C 71.703125 82.5625 71.367188 83.121094 71.144531 83.789062 C 70.917969 84.457031 70.808594 85.125 70.808594 85.792969 C 70.808594 86.238281 70.808594 86.574219 71.03125 87.019531 C 71.144531 87.355469 71.253906 87.578125 71.476562 87.800781 C 71.8125 88.023438 72.148438 88.132812 72.484375 88.132812 C 72.929688 88.132812 73.378906 87.910156 73.9375 87.578125 C 74.382812 87.242188 74.832031 86.6875 75.164062 86.015625 C 75.5 85.238281 75.835938 84.457031 76.058594 83.34375 Z M 84.21875 90.140625 L 81.3125 90.140625 L 82.875 81.894531 C 83.210938 80.445312 83.324219 79.21875 83.546875 78.21875 L 86.003906 78.21875 L 85.78125 80.335938 C 86.339844 79.554688 87.011719 78.996094 87.792969 78.550781 C 88.464844 78.105469 89.246094 77.992188 90.140625 77.992188 C 90.699219 77.992188 91.257812 78.105469 91.703125 78.328125 C 92.152344 78.550781 92.488281 78.886719 92.820312 79.332031 C 93.046875 79.886719 93.15625 80.445312 93.15625 81.226562 C 93.15625 81.449219 93.15625 81.78125 93.15625 82.230469 C 93.046875 82.5625 93.046875 82.898438 92.933594 83.230469 L 91.703125 90.140625 L 88.796875 90.140625 L 90.027344 83.34375 C 90.140625 83.230469 90.140625 82.898438 90.140625 82.675781 C 90.140625 82.453125 90.25 82.230469 90.25 82.003906 C 90.25 81.449219 90.140625 81.113281 89.917969 80.78125 C 89.691406 80.445312 89.246094 80.222656 88.6875 80.222656 C 88.238281 80.222656 87.792969 80.445312 87.347656 80.78125 C 86.898438 81.113281 86.453125 81.558594 86.117188 82.230469 C 85.667969 82.898438 85.445312 83.675781 85.222656 84.570312 Z M 105.5625 90.140625 L 102.878906 90.140625 C 102.878906 89.804688 102.992188 89.359375 102.992188 88.914062 C 102.992188 88.46875 103.101562 87.910156 103.101562 87.464844 L 102.992188 87.464844 C 102.433594 88.582031 101.761719 89.25 101.089844 89.695312 C 100.308594 90.140625 99.527344 90.363281 98.746094 90.363281 C 98.074219 90.363281 97.402344 90.25 96.957031 89.917969 C 96.398438 89.582031 95.949219 89.027344 95.726562 88.46875 C 95.390625 87.800781 95.28125 87.132812 95.28125 86.351562 C 95.28125 85.347656 95.390625 84.347656 95.726562 83.34375 C 96.175781 82.339844 96.621094 81.449219 97.402344 80.558594 C 98.074219 79.777344 98.96875 79.109375 99.972656 78.664062 C 101.089844 78.21875 102.207031 77.992188 103.660156 77.992188 C 104.332031 77.992188 105.003906 77.992188 105.5625 78.105469 C 106.230469 78.21875 106.789062 78.328125 107.238281 78.441406 L 106.007812 84.679688 C 105.894531 85.347656 105.785156 85.90625 105.785156 86.574219 C 105.671875 87.242188 105.5625 87.910156 105.5625 88.46875 C 105.5625 89.136719 105.5625 89.695312 105.5625 90.140625 Z M 103.4375 83.34375 L 104.109375 80.222656 C 103.773438 80.222656 103.4375 80.113281 102.878906 80.113281 C 102.207031 80.113281 101.648438 80.335938 101.089844 80.667969 C 100.53125 81.003906 99.972656 81.449219 99.527344 82.003906 C 99.078125 82.5625 98.855469 83.121094 98.519531 83.789062 C 98.296875 84.457031 98.183594 85.125 98.183594 85.792969 C 98.183594 86.238281 98.296875 86.574219 98.410156 87.019531 C 98.519531 87.355469 98.632812 87.578125 98.96875 87.800781 C 99.191406 88.023438 99.527344 88.132812 99.972656 88.132812 C 100.421875 88.132812 100.867188 87.910156 101.3125 87.578125 C 101.761719 87.242188 102.207031 86.6875 102.542969 86.015625 C 102.992188 85.238281 103.214844 84.457031 103.4375 83.34375 Z M 116.957031 87.464844 L 117.070312 89.695312 C 116.734375 89.917969 116.175781 90.027344 115.617188 90.140625 C 115.058594 90.25 114.390625 90.363281 113.605469 90.363281 C 112.601562 90.363281 111.707031 90.140625 111.035156 89.804688 C 110.253906 89.359375 109.808594 88.804688 109.359375 88.132812 C 108.914062 87.355469 108.800781 86.574219 108.800781 85.570312 C 108.800781 84.570312 108.914062 83.566406 109.359375 82.675781 C 109.695312 81.78125 110.253906 80.890625 110.925781 80.222656 C 111.59375 79.554688 112.378906 78.996094 113.269531 78.550781 C 114.277344 78.105469 115.28125 77.992188 116.398438 77.992188 C 116.847656 77.992188 117.40625 77.992188 117.851562 78.105469 C 118.1875 78.21875 118.523438 78.328125 118.859375 78.441406 L 118.078125 80.558594 C 117.851562 80.558594 117.628906 80.445312 117.292969 80.335938 C 116.957031 80.222656 116.625 80.222656 116.289062 80.222656 C 115.28125 80.222656 114.5 80.558594 113.828125 81.003906 C 113.160156 81.449219 112.710938 82.117188 112.265625 82.898438 C 111.929688 83.675781 111.820312 84.457031 111.820312 85.238281 C 111.820312 86.128906 112.042969 86.910156 112.488281 87.355469 C 112.9375 87.800781 113.605469 88.023438 114.390625 88.023438 C 114.949219 88.023438 115.394531 88.023438 115.839844 87.910156 C 116.289062 87.800781 116.625 87.6875 116.957031 87.464844 Z M 128.355469 87.355469 L 128.582031 89.472656 C 128.023438 89.695312 127.351562 89.917969 126.570312 90.140625 C 125.898438 90.25 125.117188 90.363281 124.445312 90.363281 C 123.328125 90.363281 122.433594 90.140625 121.652344 89.695312 C 120.980469 89.359375 120.421875 88.691406 120.085938 88.023438 C 119.753906 87.242188 119.527344 86.464844 119.527344 85.460938 C 119.527344 84.570312 119.640625 83.675781 119.976562 82.785156 C 120.3125 81.894531 120.757812 81.113281 121.316406 80.335938 C 121.988281 79.664062 122.65625 78.996094 123.441406 78.664062 C 124.335938 78.21875 125.226562 77.992188 126.234375 77.992188 C 127.464844 77.992188 128.355469 78.21875 129.140625 78.886719 C 129.808594 79.441406 130.144531 80.222656 130.144531 81.335938 C 130.144531 82.339844 129.808594 83.121094 129.140625 83.675781 C 128.46875 84.234375 127.574219 84.679688 126.34375 84.902344 C 125.226562 85.125 123.886719 85.238281 122.324219 85.238281 C 122.324219 85.460938 122.324219 85.683594 122.324219 86.015625 C 122.433594 86.351562 122.546875 86.6875 122.65625 86.910156 C 122.882812 87.355469 123.214844 87.578125 123.550781 87.800781 C 124 88.023438 124.558594 88.132812 125.117188 88.132812 C 125.785156 88.132812 126.34375 88.023438 126.90625 87.910156 C 127.464844 87.800781 127.910156 87.578125 128.355469 87.355469 Z M 127.464844 81.335938 C 127.464844 80.890625 127.238281 80.558594 127.015625 80.445312 C 126.679688 80.222656 126.34375 80.113281 125.898438 80.113281 C 125.339844 80.113281 124.78125 80.222656 124.335938 80.558594 C 123.886719 80.890625 123.550781 81.226562 123.214844 81.671875 C 122.882812 82.117188 122.65625 82.5625 122.546875 83.121094 C 123.550781 83.121094 124.445312 83.121094 125.117188 83.007812 C 125.898438 82.898438 126.457031 82.675781 126.792969 82.453125 C 127.238281 82.117188 127.464844 81.78125 127.464844 81.335938 Z M 141.429688 90.140625 L 138.859375 90.140625 C 138.859375 89.804688 138.859375 89.359375 138.859375 88.914062 C 138.972656 88.46875 138.972656 87.910156 139.085938 87.464844 L 138.972656 87.464844 C 138.414062 88.582031 137.742188 89.25 136.960938 89.695312 C 136.179688 90.140625 135.507812 90.363281 134.726562 90.363281 C 133.945312 90.363281 133.386719 90.25 132.828125 89.917969 C 132.269531 89.582031 131.933594 89.027344 131.597656 88.46875 C 131.261719 87.800781 131.152344 87.132812 131.152344 86.351562 C 131.152344 85.347656 131.375 84.347656 131.710938 83.34375 C 132.042969 82.339844 132.601562 81.449219 133.273438 80.558594 C 133.945312 79.777344 134.839844 79.109375 135.957031 78.664062 C 136.960938 78.21875 138.191406 77.992188 139.53125 77.992188 C 140.203125 77.992188 140.871094 77.992188 141.542969 78.105469 C 142.214844 78.21875 142.773438 78.328125 143.21875 78.441406 L 141.988281 84.679688 C 141.878906 85.347656 141.765625 85.90625 141.65625 86.574219 C 141.65625 87.242188 141.542969 87.910156 141.542969 88.46875 C 141.429688 89.136719 141.429688 89.695312 141.429688 90.140625 Z M 139.421875 83.34375 L 139.980469 80.222656 C 139.753906 80.222656 139.308594 80.113281 138.859375 80.113281 C 138.191406 80.113281 137.519531 80.335938 136.960938 80.667969 C 136.402344 81.003906 135.957031 81.449219 135.507812 82.003906 C 135.0625 82.5625 134.726562 83.121094 134.503906 83.789062 C 134.28125 84.457031 134.167969 85.125 134.167969 85.792969 C 134.167969 86.238281 134.167969 86.574219 134.28125 87.019531 C 134.390625 87.355469 134.613281 87.578125 134.839844 87.800781 C 135.0625 88.023438 135.398438 88.132812 135.84375 88.132812 C 136.292969 88.132812 136.738281 87.910156 137.183594 87.578125 C 137.742188 87.242188 138.078125 86.6875 138.527344 86.015625 C 138.859375 85.238281 139.195312 84.457031 139.421875 83.34375 Z M 151.710938 90.027344 L 154.730469 73.871094 C 155.289062 73.757812 155.957031 73.648438 156.628906 73.648438 C 157.300781 73.535156 157.96875 73.535156 158.753906 73.535156 C 159.535156 73.535156 160.316406 73.535156 160.988281 73.757812 C 161.65625 73.871094 162.214844 74.09375 162.664062 74.539062 C 163.222656 74.761719 163.558594 75.207031 163.890625 75.652344 C 164.117188 76.101562 164.226562 76.65625 164.339844 77.324219 C 164.226562 77.992188 164.117188 78.664062 163.78125 79.21875 C 163.445312 79.664062 163.109375 80.222656 162.550781 80.558594 C 161.992188 80.890625 161.433594 81.113281 160.875 81.335938 C 161.65625 81.671875 162.328125 82.003906 162.773438 82.675781 C 163.222656 83.34375 163.445312 84.121094 163.558594 85.015625 C 163.445312 85.90625 163.332031 86.6875 162.886719 87.355469 C 162.441406 87.910156 161.992188 88.46875 161.324219 88.914062 C 160.652344 89.359375 159.871094 89.695312 158.863281 89.917969 C 157.859375 90.140625 156.742188 90.25 155.511719 90.25 C 154.730469 90.25 153.945312 90.25 153.277344 90.140625 C 152.605469 90.140625 152.160156 90.027344 151.710938 90.027344 Z M 157.1875 75.875 L 156.292969 80.335938 L 157.632812 80.335938 C 158.417969 80.335938 158.976562 80.222656 159.535156 80.113281 C 160.09375 79.886719 160.539062 79.554688 160.875 79.109375 C 161.210938 78.773438 161.324219 78.21875 161.324219 77.660156 C 161.324219 76.992188 161.097656 76.546875 160.652344 76.210938 C 160.203125 75.875 159.535156 75.765625 158.753906 75.765625 C 158.417969 75.765625 158.082031 75.765625 157.859375 75.765625 C 157.523438 75.765625 157.300781 75.875 157.1875 75.875 Z M 155.847656 82.453125 L 154.839844 87.910156 C 155.398438 88.023438 155.847656 88.023438 156.40625 88.023438 C 157.074219 88.023438 157.746094 87.910156 158.417969 87.6875 C 158.976562 87.464844 159.535156 87.132812 159.871094 86.6875 C 160.316406 86.238281 160.429688 85.683594 160.539062 84.902344 C 160.429688 84.347656 160.316406 83.898438 160.09375 83.453125 C 159.757812 83.121094 159.3125 82.898438 158.863281 82.675781 C 158.417969 82.5625 157.859375 82.453125 157.300781 82.453125 Z M 168.25 90.140625 L 165.34375 90.140625 L 167.582031 78.21875 L 170.484375 78.21875 Z M 169.480469 76.546875 C 169.03125 76.433594 168.699219 76.324219 168.472656 76.101562 C 168.140625 75.765625 168.027344 75.429688 168.027344 74.984375 C 168.027344 74.429688 168.25 74.09375 168.585938 73.757812 C 168.921875 73.425781 169.257812 73.3125 169.816406 73.3125 C 170.261719 73.3125 170.597656 73.425781 170.933594 73.648438 C 171.15625 73.984375 171.269531 74.316406 171.269531 74.761719 C 171.269531 75.320312 171.15625 75.765625 170.820312 75.988281 C 170.484375 76.324219 170.039062 76.546875 169.480469 76.546875 Z M 176.40625 90.363281 L 176.296875 90.363281 C 175.289062 90.363281 174.507812 90.140625 173.726562 89.695312 C 172.945312 89.359375 172.496094 88.804688 172.050781 88.023438 C 171.714844 87.242188 171.492188 86.464844 171.492188 85.460938 C 171.492188 84.457031 171.601562 83.453125 171.9375 82.5625 C 172.273438 81.671875 172.71875 80.890625 173.390625 80.222656 C 173.949219 79.441406 174.730469 78.996094 175.515625 78.550781 C 176.40625 78.105469 177.300781 77.992188 178.308594 77.992188 C 179.425781 77.992188 180.320312 78.21875 181.101562 78.664062 C 181.773438 79.109375 182.332031 79.664062 182.664062 80.445312 C 183 81.113281 183.226562 82.003906 183.226562 82.898438 C 183.226562 83.898438 183.113281 84.792969 182.777344 85.792969 C 182.441406 86.6875 181.882812 87.464844 181.324219 88.132812 C 180.65625 88.804688 179.984375 89.359375 179.203125 89.804688 C 178.308594 90.140625 177.414062 90.363281 176.40625 90.363281 Z M 176.742188 88.246094 C 177.300781 88.132812 177.75 88.023438 178.195312 87.6875 C 178.644531 87.355469 178.976562 86.910156 179.3125 86.464844 C 179.648438 85.90625 179.871094 85.347656 179.984375 84.679688 C 180.207031 84.121094 180.320312 83.453125 180.320312 82.898438 C 180.320312 82.453125 180.207031 82.003906 180.097656 81.671875 C 179.984375 81.226562 179.648438 80.890625 179.3125 80.558594 C 178.976562 80.335938 178.53125 80.113281 177.972656 80.113281 C 177.414062 80.113281 176.96875 80.335938 176.519531 80.667969 C 176.074219 81.003906 175.625 81.449219 175.289062 81.894531 C 175.066406 82.453125 174.84375 83.007812 174.621094 83.675781 C 174.507812 84.234375 174.398438 84.792969 174.398438 85.460938 C 174.398438 86.238281 174.621094 86.910156 174.957031 87.464844 C 175.402344 87.910156 175.960938 88.132812 176.742188 88.246094 Z M 187.582031 75.988281 L 190.488281 75.097656 L 189.929688 78.21875 L 192.613281 78.21875 L 192.164062 80.445312 L 189.484375 80.445312 L 188.589844 85.238281 C 188.476562 85.460938 188.476562 85.792969 188.363281 86.128906 C 188.363281 86.351562 188.363281 86.6875 188.363281 86.910156 C 188.363281 87.242188 188.363281 87.464844 188.589844 87.6875 C 188.699219 87.910156 189.035156 88.023438 189.371094 88.023438 C 189.707031 88.023438 190.042969 87.910156 190.375 87.910156 L 190.152344 90.140625 C 189.929688 90.25 189.59375 90.25 189.257812 90.363281 C 188.921875 90.363281 188.589844 90.363281 188.253906 90.363281 C 187.246094 90.363281 186.578125 90.140625 186.128906 89.695312 C 185.683594 89.25 185.460938 88.582031 185.460938 87.910156 C 185.460938 87.578125 185.460938 87.242188 185.460938 86.910156 C 185.570312 86.574219 185.570312 86.128906 185.683594 85.683594 L 186.6875 80.445312 L 185.125 80.445312 L 185.570312 78.21875 L 187.136719 78.21875 Z M 201.886719 87.355469 L 202.222656 89.472656 C 201.550781 89.695312 200.878906 89.917969 200.210938 90.140625 C 199.429688 90.25 198.757812 90.363281 197.976562 90.363281 C 196.859375 90.363281 195.964844 90.140625 195.179688 89.695312 C 194.511719 89.359375 193.953125 88.691406 193.617188 88.023438 C 193.28125 87.242188 193.058594 86.464844 193.058594 85.460938 C 193.058594 84.570312 193.28125 83.675781 193.617188 82.785156 C 193.839844 81.894531 194.289062 81.113281 194.957031 80.335938 C 195.515625 79.664062 196.1875 78.996094 197.082031 78.664062 C 197.863281 78.21875 198.757812 77.992188 199.875 77.992188 C 200.992188 77.992188 202 78.21875 202.667969 78.886719 C 203.339844 79.441406 203.675781 80.222656 203.675781 81.335938 C 203.675781 82.339844 203.339844 83.121094 202.667969 83.675781 C 202 84.234375 201.105469 84.679688 199.988281 84.902344 C 198.757812 85.125 197.417969 85.238281 195.851562 85.238281 C 195.851562 85.460938 195.851562 85.683594 195.964844 86.015625 C 195.964844 86.351562 196.074219 86.6875 196.1875 86.910156 C 196.410156 87.355469 196.746094 87.578125 197.191406 87.800781 C 197.527344 88.023438 198.085938 88.132812 198.644531 88.132812 C 199.316406 88.132812 199.875 88.023438 200.433594 87.910156 C 200.992188 87.800781 201.4375 87.578125 201.886719 87.355469 Z M 200.992188 81.335938 C 200.992188 80.890625 200.878906 80.558594 200.546875 80.445312 C 200.320312 80.222656 199.988281 80.113281 199.429688 80.113281 C 198.871094 80.113281 198.308594 80.222656 197.863281 80.558594 C 197.417969 80.890625 197.082031 81.226562 196.746094 81.671875 C 196.523438 82.117188 196.300781 82.5625 196.1875 83.121094 C 197.191406 83.121094 197.976562 83.121094 198.757812 83.007812 C 199.429688 82.898438 199.988281 82.675781 200.433594 82.453125 C 200.769531 82.117188 200.992188 81.78125 200.992188 81.335938 Z M 213.171875 87.464844 L 213.285156 89.695312 C 212.949219 89.917969 212.503906 90.027344 211.945312 90.140625 C 211.273438 90.25 210.601562 90.363281 209.933594 90.363281 C 208.925781 90.363281 208.03125 90.140625 207.25 89.804688 C 206.578125 89.359375 206.019531 88.804688 205.6875 88.132812 C 205.238281 87.355469 205.015625 86.574219 205.015625 85.570312 C 205.015625 84.570312 205.238281 83.566406 205.574219 82.675781 C 206.019531 81.78125 206.46875 80.890625 207.136719 80.222656 C 207.808594 79.554688 208.703125 78.996094 209.597656 78.550781 C 210.492188 78.105469 211.496094 77.992188 212.613281 77.992188 C 213.171875 77.992188 213.621094 77.992188 214.066406 78.105469 C 214.515625 78.21875 214.847656 78.328125 215.074219 78.441406 L 214.402344 80.558594 C 214.179688 80.558594 213.84375 80.445312 213.621094 80.335938 C 213.285156 80.222656 212.949219 80.222656 212.503906 80.222656 C 211.609375 80.222656 210.824219 80.558594 210.15625 81.003906 C 209.484375 81.449219 208.925781 82.117188 208.589844 82.898438 C 208.257812 83.675781 208.03125 84.457031 208.03125 85.238281 C 208.03125 86.128906 208.257812 86.910156 208.703125 87.355469 C 209.261719 87.800781 209.820312 88.023438 210.714844 88.023438 C 211.273438 88.023438 211.71875 88.023438 212.167969 87.910156 C 212.503906 87.800781 212.949219 87.6875 213.171875 87.464844 Z M 213.171875 87.464844 " fill-opacity="1" fill-rule="nonzero"/></g><path fill="#00858a" d="M 97.960938 110.085938 L 98.074219 110.085938 C 98.519531 110.085938 98.96875 109.863281 99.414062 109.640625 C 99.636719 109.417969 99.972656 109.308594 100.421875 109.308594 C 100.644531 109.308594 100.980469 109.308594 101.203125 109.417969 C 101.539062 109.53125 101.761719 109.640625 102.097656 109.863281 C 102.320312 110.085938 102.433594 110.308594 102.542969 110.644531 L 102.65625 111.3125 L 102.765625 112.316406 L 102.765625 113.652344 C 102.765625 113.765625 102.65625 113.875 102.433594 113.875 C 102.207031 113.988281 101.984375 113.875 101.875 113.765625 C 101.761719 113.542969 101.648438 113.320312 101.648438 113.097656 L 101.425781 111.980469 C 101.425781 111.871094 101.425781 111.648438 101.3125 111.425781 L 101.203125 110.980469 C 101.089844 110.644531 100.867188 110.421875 100.53125 110.421875 C 100.308594 110.421875 100.195312 110.421875 100.085938 110.53125 C 99.527344 110.644531 99.078125 110.867188 98.746094 111.089844 C 98.183594 111.425781 97.738281 111.757812 97.402344 112.203125 L 96.285156 113.652344 C 96.175781 113.765625 95.949219 113.875 95.726562 113.875 L 95.390625 113.875 C 95.167969 113.765625 95.054688 113.652344 95.054688 113.429688 C 95.054688 113.429688 95.054688 113.320312 95.167969 113.207031 C 95.503906 112.316406 95.839844 111.425781 96.175781 110.753906 L 96.507812 109.53125 L 96.957031 108.304688 C 96.957031 108.082031 97.179688 107.96875 97.515625 107.859375 L 97.851562 107.96875 C 97.851562 107.96875 97.960938 108.082031 98.074219 108.304688 C 98.074219 108.414062 98.074219 108.636719 97.960938 108.863281 L 97.851562 109.195312 L 97.738281 109.53125 L 97.738281 109.753906 C 97.738281 109.863281 97.851562 109.976562 97.960938 110.085938 Z M 97.960938 110.085938 " fill-opacity="1" fill-rule="evenodd"/><path fill="#00858a" d="M 96.398438 105.183594 C 96.285156 105.296875 96.175781 105.40625 95.839844 105.519531 C 95.617188 105.519531 95.503906 105.40625 95.28125 105.183594 C 95.167969 105.074219 95.167969 104.851562 95.054688 104.625 L 95.054688 104.292969 C 95.054688 104.070312 95.054688 103.957031 95.167969 103.734375 C 95.28125 103.625 95.503906 103.511719 95.726562 103.511719 C 95.949219 103.511719 96.175781 103.511719 96.285156 103.734375 C 96.398438 103.847656 96.507812 104.070312 96.507812 104.179688 L 96.621094 104.515625 C 96.621094 104.738281 96.507812 104.960938 96.398438 105.183594 Z M 96.398438 105.183594 " fill-opacity="1" fill-rule="evenodd"/><path fill="#00858a" d="M 94.496094 108.414062 L 94.050781 108.972656 L 93.714844 109.53125 C 93.492188 109.863281 93.269531 110.199219 93.046875 110.644531 C 92.820312 111.089844 92.597656 111.648438 92.488281 112.203125 L 92.375 112.984375 L 92.152344 113.765625 C 92.039062 113.988281 91.925781 114.097656 91.703125 114.210938 C 91.59375 114.210938 91.480469 114.210938 91.367188 114.097656 C 91.144531 113.988281 91.035156 113.765625 91.035156 113.429688 L 91.144531 112.648438 C 91.257812 111.871094 91.480469 111.089844 91.703125 110.421875 C 91.925781 109.640625 92.261719 108.972656 92.597656 108.414062 C 92.597656 108.304688 92.710938 108.082031 92.820312 107.96875 C 92.820312 107.859375 92.933594 107.636719 93.046875 107.523438 C 93.15625 107.300781 93.378906 107.191406 93.605469 107.191406 C 93.828125 107.191406 94.050781 107.300781 94.273438 107.523438 C 94.386719 107.636719 94.496094 107.746094 94.496094 107.96875 L 94.609375 108.191406 C 94.609375 108.304688 94.496094 108.414062 94.496094 108.414062 Z M 94.496094 108.414062 " fill-opacity="1" fill-rule="evenodd"/><path fill="#00858a" d="M 164.453125 104.179688 L 164.117188 104.625 L 163.78125 105.074219 L 163.558594 105.40625 L 163.332031 105.742188 L 163.109375 106.074219 L 163 106.296875 L 163 106.410156 L 164.785156 106.074219 L 165.679688 106.074219 C 165.792969 106.296875 165.902344 106.410156 165.902344 106.519531 C 165.792969 106.632812 165.792969 106.746094 165.570312 106.855469 L 165.121094 106.96875 L 163.332031 107.414062 L 162.441406 107.523438 C 162.328125 107.636719 162.214844 107.746094 162.105469 107.96875 L 161.992188 108.082031 L 161.882812 108.304688 C 161.769531 108.527344 161.546875 108.863281 161.433594 109.308594 C 161.210938 109.753906 160.988281 110.199219 160.875 110.53125 C 160.875 110.753906 160.875 110.867188 160.761719 111.089844 C 160.761719 111.3125 160.761719 111.425781 160.761719 111.648438 L 160.761719 111.980469 C 160.761719 112.316406 160.988281 112.648438 161.324219 112.875 L 161.65625 112.875 C 161.992188 112.875 162.328125 112.761719 162.550781 112.539062 C 162.773438 112.425781 163 112.316406 163.222656 112.09375 C 163.332031 111.980469 163.445312 111.871094 163.558594 111.757812 C 163.667969 111.648438 163.78125 111.648438 163.890625 111.648438 C 163.890625 111.648438 164.003906 111.648438 164.117188 111.757812 C 164.117188 111.871094 164.117188 111.980469 164.117188 112.09375 C 164.003906 112.316406 163.890625 112.539062 163.667969 112.761719 L 162.886719 113.320312 C 162.214844 113.765625 161.65625 113.988281 160.988281 113.988281 C 160.09375 113.988281 159.421875 113.542969 159.199219 112.648438 C 159.199219 112.425781 159.199219 112.316406 159.199219 112.316406 L 159.199219 112.09375 C 159.199219 111.757812 159.199219 111.425781 159.3125 111.203125 C 159.3125 110.980469 159.421875 110.644531 159.535156 110.308594 C 159.757812 109.53125 160.09375 108.863281 160.316406 108.191406 C 160.316406 108.191406 160.203125 108.191406 159.644531 108.304688 L 159.3125 108.414062 L 158.753906 108.414062 C 158.527344 108.414062 158.527344 108.304688 158.417969 108.082031 L 158.417969 107.859375 C 158.304688 107.746094 158.417969 107.636719 158.417969 107.636719 C 158.417969 107.523438 158.417969 107.414062 158.527344 107.300781 C 158.863281 107.078125 158.640625 106.96875 159.644531 106.855469 L 160.429688 106.746094 L 161.097656 106.632812 L 161.210938 106.519531 L 161.546875 106.074219 L 162.328125 104.960938 C 162.550781 104.515625 162.886719 104.070312 163.109375 103.625 C 163.332031 103.511719 163.445312 103.289062 163.445312 103.289062 C 163.667969 103.066406 163.78125 102.957031 164.003906 102.734375 C 164.117188 102.621094 164.339844 102.621094 164.453125 102.621094 C 164.5625 102.621094 164.675781 102.621094 164.785156 102.621094 C 164.898438 102.734375 165.011719 102.84375 165.011719 102.957031 C 165.011719 103.179688 165.011719 103.402344 164.898438 103.625 C 164.785156 103.734375 164.5625 103.957031 164.453125 104.179688 Z M 164.453125 104.179688 " fill-opacity="1" fill-rule="evenodd"/><path fill="#00858a" d="M 153.613281 109.308594 C 153.722656 109.308594 153.945312 109.195312 154.503906 108.863281 C 155.066406 108.636719 155.511719 108.414062 155.734375 108.414062 L 156.292969 108.304688 L 156.742188 108.082031 L 157.859375 108.082031 C 157.859375 108.082031 157.96875 108.191406 157.96875 108.304688 L 157.96875 108.636719 C 157.96875 108.75 157.96875 108.863281 157.859375 108.972656 C 157.410156 109.085938 156.964844 109.195312 156.742188 109.308594 C 156.40625 109.308594 155.957031 109.53125 155.625 109.753906 L 155.175781 109.976562 L 154.730469 110.308594 C 154.394531 110.421875 154.058594 110.644531 153.835938 110.980469 L 153.277344 111.648438 L 152.828125 112.316406 C 152.496094 112.648438 152.160156 113.207031 151.824219 113.652344 C 151.824219 113.765625 151.601562 113.875 151.488281 113.875 L 150.929688 113.875 C 150.929688 113.988281 150.816406 113.875 150.816406 113.875 L 150.707031 113.652344 L 150.59375 113.320312 L 150.59375 113.097656 L 150.707031 112.761719 L 150.816406 112.425781 L 151.152344 111.648438 L 151.488281 110.867188 C 151.601562 110.53125 151.710938 110.308594 151.710938 109.976562 C 151.824219 109.640625 151.9375 109.308594 152.046875 109.085938 C 152.046875 108.863281 152.160156 108.636719 152.160156 108.414062 C 152.160156 108.191406 152.269531 107.96875 152.496094 107.746094 C 152.605469 107.636719 152.71875 107.636719 153.054688 107.523438 L 153.164062 107.523438 C 153.386719 107.523438 153.5 107.523438 153.613281 107.636719 C 153.722656 107.859375 153.722656 108.082031 153.722656 108.191406 L 153.722656 108.527344 L 153.613281 108.863281 Z M 153.613281 109.308594 " fill-opacity="1" fill-rule="evenodd"/><g clip-path="url(#ad981298d1)"><path fill="#00858a" d="M 141.65625 109.640625 C 141.65625 109.753906 141.542969 109.976562 141.542969 109.976562 C 141.542969 110.085938 141.542969 110.199219 141.542969 110.308594 C 141.429688 110.53125 141.320312 110.753906 141.207031 110.980469 L 140.203125 111.871094 C 139.195312 112.648438 138.300781 113.320312 137.183594 113.652344 L 136.625 113.875 C 136.292969 113.765625 136.066406 113.542969 135.957031 113.320312 C 136.066406 113.207031 136.066406 113.097656 136.292969 112.984375 L 136.625 112.761719 C 137.183594 112.539062 137.855469 112.203125 138.414062 111.871094 C 138.75 111.648438 138.972656 111.425781 139.195312 111.203125 C 139.421875 110.867188 139.644531 110.644531 139.867188 110.308594 L 139.980469 109.863281 C 139.980469 109.640625 139.867188 109.53125 139.753906 109.417969 C 139.421875 109.085938 138.972656 108.863281 138.527344 108.863281 C 138.078125 108.863281 137.632812 108.972656 137.183594 108.972656 L 137.074219 109.085938 C 136.851562 109.53125 136.515625 110.308594 136.179688 111.3125 L 135.84375 112.875 L 135.398438 114.433594 L 134.726562 117.332031 C 134.503906 118.109375 134.390625 118.554688 134.28125 118.667969 L 133.832031 119.003906 C 133.609375 119.113281 133.496094 119.226562 133.273438 119.226562 L 133.164062 119.226562 L 133.050781 119.113281 L 132.9375 119.003906 L 132.9375 118.332031 L 133.164062 117.554688 C 133.496094 116.214844 133.832031 114.765625 134.28125 113.207031 L 134.839844 111.089844 L 135.621094 108.972656 L 135.507812 108.75 L 135.621094 108.636719 L 135.621094 108.191406 C 135.621094 108.082031 135.730469 107.96875 135.957031 107.859375 L 136.179688 107.746094 L 136.515625 107.523438 L 138.078125 107.523438 L 138.859375 107.746094 L 139.195312 107.746094 C 139.308594 107.746094 139.421875 107.859375 139.644531 107.859375 L 140.203125 108.082031 C 140.425781 108.191406 140.648438 108.304688 140.871094 108.414062 C 140.984375 108.636719 141.207031 108.75 141.320312 108.972656 C 141.429688 109.085938 141.542969 109.308594 141.65625 109.640625 Z M 141.65625 109.640625 " fill-opacity="1" fill-rule="evenodd"/></g><g clip-path="url(#f116aacd72)"><path fill="#00858a" d="M 133.496094 109.640625 C 133.496094 109.753906 133.496094 109.976562 133.496094 109.976562 C 133.496094 110.085938 133.496094 110.199219 133.386719 110.308594 C 133.386719 110.53125 133.273438 110.753906 133.050781 110.980469 L 132.042969 111.871094 C 131.152344 112.648438 130.144531 113.320312 129.027344 113.652344 L 128.46875 113.875 C 128.246094 113.765625 128.023438 113.542969 127.910156 113.320312 C 127.910156 113.207031 128.023438 113.097656 128.132812 112.984375 L 128.582031 112.761719 C 129.140625 112.539062 129.699219 112.203125 130.367188 111.871094 C 130.59375 111.648438 130.925781 111.425781 131.152344 111.203125 C 131.375 110.867188 131.597656 110.644531 131.710938 110.308594 L 131.820312 109.863281 C 131.820312 109.640625 131.820312 109.53125 131.710938 109.417969 C 131.375 109.085938 130.925781 108.863281 130.480469 108.863281 C 130.035156 108.863281 129.585938 108.972656 129.140625 108.972656 L 129.027344 109.085938 C 128.804688 109.53125 128.46875 110.308594 128.132812 111.3125 L 127.6875 112.875 L 127.351562 114.433594 L 126.90625 115.882812 L 126.679688 117.332031 C 126.457031 118.109375 126.34375 118.554688 126.234375 118.667969 L 125.675781 119.003906 C 125.5625 119.113281 125.339844 119.226562 125.226562 119.226562 L 125.003906 119.226562 L 125.003906 119.113281 L 124.894531 119.003906 L 124.894531 118.332031 L 125.117188 117.554688 C 125.453125 116.214844 125.785156 114.765625 126.121094 113.207031 L 127.464844 108.972656 L 127.464844 108.636719 L 127.574219 108.191406 C 127.574219 108.082031 127.6875 107.96875 127.910156 107.859375 L 128.132812 107.746094 L 128.46875 107.523438 L 130.035156 107.523438 L 130.816406 107.746094 L 131.152344 107.746094 C 131.152344 107.746094 131.375 107.859375 131.597656 107.859375 L 132.15625 108.082031 C 132.378906 108.191406 132.601562 108.304688 132.714844 108.414062 C 132.9375 108.636719 133.164062 108.75 133.273438 108.972656 C 133.386719 109.085938 133.496094 109.308594 133.496094 109.640625 Z M 133.496094 109.640625 " fill-opacity="1" fill-rule="evenodd"/></g><path fill="#00858a" d="M 124.335938 110.199219 L 124.335938 113.988281 C 124.335938 114.097656 124.335938 114.210938 124.109375 114.210938 L 123.886719 114.320312 L 123.777344 114.210938 C 123.664062 114.210938 123.550781 114.097656 123.441406 113.988281 C 123.214844 113.765625 123.105469 113.429688 123.105469 112.984375 L 122.992188 112.316406 L 122.992188 110.867188 C 122.992188 110.753906 123.105469 110.644531 123.105469 110.421875 C 123.105469 110.421875 122.992188 110.308594 122.992188 110.308594 L 122.882812 110.421875 C 122.210938 110.980469 121.539062 111.535156 121.09375 111.980469 C 120.421875 112.648438 119.753906 113.207031 119.304688 113.652344 C 118.96875 113.875 118.523438 114.097656 118.078125 114.097656 L 117.742188 114.097656 L 117.40625 113.988281 C 117.070312 113.875 116.847656 113.765625 116.625 113.429688 C 116.511719 113.320312 116.398438 113.207031 116.398438 112.984375 C 116.289062 112.875 116.289062 112.761719 116.289062 112.539062 C 116.289062 112.09375 116.289062 111.757812 116.398438 111.425781 C 116.398438 111.203125 116.511719 110.867188 116.625 110.53125 C 116.734375 110.199219 116.957031 109.863281 117.070312 109.640625 C 117.183594 109.308594 117.292969 109.085938 117.519531 108.75 C 117.742188 108.527344 117.964844 108.304688 118.300781 108.304688 L 118.523438 108.414062 C 118.746094 108.414062 118.859375 108.636719 118.96875 108.863281 C 118.96875 108.972656 118.96875 109.085938 118.96875 109.195312 L 118.859375 109.417969 L 118.523438 109.976562 L 118.1875 110.644531 C 117.964844 110.980469 117.851562 111.3125 117.742188 111.871094 C 117.742188 112.09375 117.851562 112.316406 118.078125 112.425781 C 118.1875 112.425781 118.300781 112.425781 118.410156 112.425781 L 118.746094 112.425781 C 119.082031 112.203125 119.417969 111.871094 119.753906 111.535156 C 119.976562 111.203125 120.3125 110.867188 120.648438 110.53125 C 121.207031 109.976562 121.539062 109.640625 121.875 109.417969 C 122.324219 108.972656 122.65625 108.636719 123.105469 108.304688 C 123.328125 108.304688 123.441406 108.191406 123.550781 108.191406 C 123.886719 108.191406 124.109375 108.304688 124.335938 108.527344 C 124.445312 108.636719 124.558594 108.863281 124.558594 109.195312 L 124.558594 109.308594 L 124.445312 109.863281 Z M 124.335938 110.199219 " fill-opacity="1" fill-rule="evenodd"/><path fill="#00858a" d="M 115.953125 107.859375 C 115.839844 107.96875 115.617188 108.082031 115.507812 108.191406 C 115.28125 108.191406 115.058594 108.304688 114.835938 108.304688 L 114.613281 108.191406 L 114.164062 108.191406 L 113.71875 108.304688 L 112.710938 108.527344 C 112.378906 108.636719 112.152344 108.863281 112.042969 109.195312 C 111.929688 109.195312 111.929688 109.308594 111.929688 109.417969 C 111.929688 109.640625 111.929688 109.753906 112.042969 109.753906 C 112.152344 109.976562 112.378906 110.085938 112.601562 110.308594 L 113.160156 110.53125 L 113.71875 110.867188 C 113.941406 110.980469 114.054688 111.203125 114.164062 111.425781 L 114.164062 111.757812 C 114.164062 111.980469 114.054688 112.203125 113.828125 112.425781 L 112.824219 113.097656 C 112.378906 113.429688 111.820312 113.542969 111.261719 113.765625 C 110.699219 113.875 110.140625 113.988281 109.582031 113.988281 L 109.359375 113.875 L 109.136719 113.875 C 108.914062 113.765625 108.914062 113.765625 108.800781 113.542969 C 108.800781 113.429688 108.914062 113.320312 109.136719 113.207031 C 109.695312 113.207031 110.253906 113.097656 110.8125 112.875 C 111.371094 112.761719 111.820312 112.425781 112.152344 112.09375 C 112.265625 111.980469 112.265625 111.871094 112.265625 111.757812 C 112.265625 111.648438 112.152344 111.535156 111.929688 111.3125 L 111.148438 110.867188 C 110.699219 110.753906 110.476562 110.421875 110.367188 110.085938 C 110.253906 109.863281 110.253906 109.640625 110.253906 109.53125 C 110.253906 109.308594 110.253906 109.085938 110.367188 108.972656 C 110.589844 108.414062 110.925781 108.082031 111.371094 107.859375 C 111.820312 107.523438 112.265625 107.300781 112.710938 107.191406 L 113.71875 106.96875 L 114.835938 106.855469 C 114.949219 106.855469 115.171875 106.855469 115.394531 106.96875 C 115.617188 107.078125 115.839844 107.191406 116.066406 107.523438 Z M 115.953125 107.859375 " fill-opacity="1" fill-rule="evenodd"/><path fill="#00858a" d="M 148.472656 108.304688 C 148.695312 108.304688 149.03125 108.414062 149.253906 108.527344 C 149.476562 108.636719 149.589844 108.863281 149.699219 109.085938 C 149.8125 109.308594 149.8125 109.53125 149.8125 109.753906 C 149.8125 109.976562 149.8125 110.085938 149.8125 110.199219 C 149.8125 110.308594 149.699219 110.421875 149.699219 110.644531 C 149.367188 111.089844 149.140625 111.425781 148.808594 111.871094 C 148.246094 112.316406 147.6875 112.761719 147.019531 113.097656 C 146.347656 113.429688 145.679688 113.652344 144.894531 113.875 L 143.890625 113.875 C 143.667969 113.765625 143.332031 113.652344 142.996094 113.542969 C 142.4375 113.207031 142.214844 112.875 142.214844 112.316406 C 142.214844 112.203125 142.214844 111.980469 142.324219 111.757812 C 142.660156 110.980469 142.996094 110.308594 143.332031 109.863281 C 143.777344 109.308594 144.449219 108.863281 145.117188 108.414062 C 145.789062 108.082031 146.570312 107.746094 147.242188 107.636719 L 147.578125 107.523438 C 147.6875 107.523438 147.800781 107.523438 147.914062 107.636719 C 148.136719 107.746094 148.359375 107.859375 148.472656 108.082031 Z M 148.136719 111.203125 C 148.472656 110.867188 148.582031 110.644531 148.582031 110.308594 C 148.582031 109.976562 148.472656 109.753906 148.136719 109.417969 C 147.800781 109.308594 147.578125 109.308594 147.355469 109.308594 C 147.128906 109.308594 146.796875 109.308594 146.570312 109.417969 C 146.011719 109.53125 145.566406 109.753906 145.117188 110.085938 C 144.894531 110.308594 144.671875 110.53125 144.449219 110.867188 C 144.226562 111.089844 144 111.425781 143.890625 111.757812 C 143.777344 111.871094 143.667969 112.09375 143.667969 112.203125 C 143.667969 112.316406 143.777344 112.425781 143.777344 112.539062 C 143.890625 112.761719 144.113281 112.761719 144.671875 112.761719 C 145.007812 112.761719 145.34375 112.761719 145.679688 112.648438 C 145.902344 112.539062 146.238281 112.425781 146.570312 112.203125 L 147.355469 111.871094 C 147.6875 111.648438 147.914062 111.425781 148.136719 111.203125 Z M 148.136719 111.203125 " fill-opacity="1" fill-rule="evenodd"/><path fill="#00858a" d="M 184.566406 107.523438 L 185.125 107.523438 C 185.347656 107.523438 185.460938 107.523438 185.570312 107.636719 C 185.570312 107.746094 185.683594 107.746094 185.683594 107.859375 L 185.570312 108.082031 C 185.570312 108.191406 185.460938 108.304688 185.234375 108.304688 C 184.902344 108.414062 184.453125 108.414062 184.117188 108.527344 L 183.449219 108.636719 L 182.777344 108.636719 C 182.332031 109.640625 181.996094 110.644531 181.546875 111.648438 C 181.4375 112.203125 181.214844 112.648438 181.101562 113.207031 C 180.878906 113.765625 180.65625 114.210938 180.429688 114.765625 C 180.320312 114.878906 180.097656 115.101562 179.871094 115.101562 C 179.761719 115.101562 179.535156 114.992188 179.3125 114.878906 C 179.203125 114.765625 179.203125 114.542969 179.203125 114.320312 C 179.425781 113.429688 179.648438 112.539062 180.097656 111.535156 L 180.765625 110.199219 L 181.324219 108.863281 C 181.101562 108.863281 180.65625 108.972656 180.207031 109.085938 C 179.984375 109.195312 179.648438 109.308594 179.425781 109.308594 L 179.203125 109.195312 C 178.976562 109.195312 178.867188 109.085938 178.753906 108.972656 C 178.644531 108.75 178.753906 108.527344 178.976562 108.304688 L 179.648438 108.082031 L 180.429688 107.859375 L 181.101562 107.746094 L 181.996094 107.636719 L 182.441406 106.855469 L 182.777344 106.074219 L 183.226562 105.40625 L 183.671875 104.625 C 184.007812 104.292969 184.230469 103.957031 184.566406 103.734375 C 184.566406 103.734375 184.789062 103.625 184.902344 103.625 L 185.570312 103.625 C 185.792969 103.625 186.128906 103.734375 186.355469 103.957031 C 186.578125 104.179688 186.6875 104.402344 186.800781 104.738281 C 186.800781 104.960938 186.6875 105.074219 186.578125 105.183594 L 186.355469 105.183594 C 186.242188 105.183594 186.128906 105.183594 186.019531 105.074219 C 185.90625 104.960938 185.792969 104.851562 185.570312 104.738281 C 185.460938 104.738281 185.234375 104.851562 185.125 104.960938 C 184.789062 105.40625 184.453125 105.742188 184.230469 106.1875 L 183.894531 106.746094 L 183.449219 107.523438 Z M 184.566406 107.523438 " fill-opacity="1" fill-rule="evenodd"/><path fill="#00858a" d="M 176.96875 108.304688 C 177.191406 108.304688 177.414062 108.414062 177.636719 108.527344 C 177.859375 108.636719 178.085938 108.863281 178.195312 109.085938 C 178.308594 109.308594 178.308594 109.53125 178.308594 109.753906 C 178.308594 109.976562 178.308594 110.085938 178.308594 110.199219 C 178.308594 110.308594 178.195312 110.421875 178.085938 110.644531 C 177.859375 111.089844 177.636719 111.425781 177.300781 111.871094 C 176.742188 112.316406 176.183594 112.761719 175.515625 113.097656 C 174.84375 113.429688 174.171875 113.652344 173.390625 113.875 L 172.386719 113.875 C 172.050781 113.765625 171.828125 113.652344 171.492188 113.542969 C 170.933594 113.207031 170.597656 112.875 170.597656 112.316406 C 170.597656 112.203125 170.710938 111.980469 170.820312 111.757812 C 171.15625 110.980469 171.492188 110.308594 171.828125 109.863281 C 172.273438 109.308594 172.832031 108.863281 173.613281 108.414062 C 174.285156 108.082031 175.066406 107.746094 175.738281 107.636719 L 176.074219 107.523438 C 176.183594 107.523438 176.296875 107.523438 176.40625 107.636719 C 176.632812 107.746094 176.742188 107.859375 176.855469 108.082031 Z M 176.632812 111.203125 C 176.96875 110.867188 177.078125 110.644531 177.078125 110.308594 C 177.078125 109.976562 176.855469 109.753906 176.632812 109.417969 C 176.296875 109.308594 176.074219 109.308594 175.738281 109.308594 C 175.515625 109.308594 175.289062 109.308594 175.066406 109.417969 C 174.507812 109.53125 174.0625 109.753906 173.613281 110.085938 C 173.390625 110.308594 173.167969 110.53125 172.945312 110.867188 C 172.609375 111.089844 172.496094 111.425781 172.273438 111.757812 C 172.273438 111.871094 172.160156 112.09375 172.160156 112.203125 C 172.160156 112.316406 172.160156 112.425781 172.273438 112.539062 C 172.273438 112.761719 172.609375 112.761719 173.167969 112.761719 C 173.503906 112.761719 173.839844 112.761719 174.0625 112.648438 C 174.398438 112.539062 174.730469 112.425781 175.066406 112.203125 L 175.847656 111.871094 C 176.183594 111.648438 176.40625 111.425781 176.632812 111.203125 Z M 176.632812 111.203125 " fill-opacity="1" fill-rule="evenodd"/><path fill="#00858a" d="M 79.1875 110.085938 L 79.410156 110.085938 C 79.746094 110.085938 80.195312 109.863281 80.640625 109.640625 C 80.976562 109.417969 81.3125 109.308594 81.648438 109.308594 C 81.980469 109.308594 82.207031 109.308594 82.539062 109.417969 C 82.765625 109.53125 83.101562 109.640625 83.324219 109.863281 C 83.546875 110.085938 83.769531 110.308594 83.882812 110.644531 L 83.992188 111.3125 L 84.105469 112.316406 L 84.105469 113.652344 C 84.105469 113.765625 83.882812 113.875 83.660156 113.875 C 83.433594 113.988281 83.210938 113.875 83.101562 113.765625 C 82.988281 113.542969 82.875 113.320312 82.875 113.097656 L 82.765625 111.980469 C 82.765625 111.871094 82.652344 111.648438 82.652344 111.425781 L 82.539062 110.980469 C 82.429688 110.644531 82.09375 110.421875 81.757812 110.421875 C 81.648438 110.421875 81.535156 110.421875 81.421875 110.53125 C 80.863281 110.644531 80.417969 110.867188 80.082031 111.089844 C 79.523438 111.425781 79.078125 111.757812 78.742188 112.203125 L 77.625 113.652344 C 77.402344 113.765625 77.289062 113.875 77.066406 113.875 L 76.730469 113.875 C 76.507812 113.765625 76.394531 113.652344 76.394531 113.429688 C 76.394531 113.429688 76.394531 113.320312 76.394531 113.207031 C 76.84375 112.316406 77.066406 111.425781 77.402344 110.753906 L 77.847656 109.53125 L 78.183594 108.304688 C 78.183594 108.082031 78.40625 107.96875 78.742188 107.859375 L 79.078125 107.96875 C 79.1875 107.96875 79.300781 108.082031 79.300781 108.304688 C 79.410156 108.414062 79.300781 108.636719 79.300781 108.863281 L 79.1875 109.195312 L 79.078125 109.53125 L 78.964844 109.753906 C 78.964844 109.863281 79.078125 109.976562 79.1875 110.085938 Z M 79.1875 110.085938 " fill-opacity="1" fill-rule="evenodd"/><path fill="#00858a" d="M 63.207031 104.179688 L 62.984375 104.738281 L 62.648438 105.074219 L 62.425781 105.40625 L 62.203125 105.742188 L 61.980469 106.074219 L 61.867188 106.296875 L 61.867188 106.410156 L 62.761719 106.296875 L 63.320312 106.1875 L 63.765625 106.296875 C 63.878906 106.410156 63.878906 106.519531 63.992188 106.632812 C 63.878906 106.855469 63.765625 106.96875 63.65625 106.96875 L 63.097656 107.191406 L 61.308594 107.636719 C 61.199219 107.636719 61.085938 107.746094 60.972656 107.96875 L 60.863281 108.082031 L 60.75 108.304688 C 60.636719 108.527344 60.414062 108.863281 60.191406 109.308594 C 59.96875 109.753906 59.855469 110.199219 59.746094 110.53125 C 59.746094 110.753906 59.632812 110.867188 59.632812 111.089844 C 59.632812 111.3125 59.632812 111.425781 59.632812 111.648438 L 59.632812 111.980469 C 59.632812 112.316406 59.746094 112.648438 60.078125 112.875 L 60.527344 112.875 C 60.863281 112.875 61.085938 112.761719 61.421875 112.539062 C 61.644531 112.425781 61.867188 112.316406 61.980469 112.203125 C 62.203125 111.980469 62.316406 111.871094 62.425781 111.757812 C 62.539062 111.648438 62.648438 111.648438 62.761719 111.648438 C 62.761719 111.648438 62.875 111.648438 62.875 111.757812 C 62.984375 111.871094 62.984375 111.980469 62.984375 112.09375 C 62.875 112.316406 62.761719 112.539062 62.425781 112.761719 L 61.757812 113.320312 C 61.085938 113.765625 60.414062 113.988281 59.855469 113.988281 C 58.851562 113.988281 58.292969 113.542969 58.070312 112.648438 C 58.070312 112.425781 58.070312 112.316406 58.070312 112.316406 L 58.070312 112.09375 C 58.070312 111.757812 58.070312 111.425781 58.070312 111.203125 C 58.179688 110.980469 58.179688 110.644531 58.292969 110.308594 C 58.628906 109.640625 58.851562 108.863281 59.1875 108.191406 C 59.1875 108.191406 58.851562 108.191406 58.292969 108.414062 L 57.175781 108.636719 L 56.617188 108.636719 C 56.503906 108.636719 56.390625 108.527344 56.28125 108.304688 L 56.28125 108.082031 C 56.28125 107.96875 56.28125 107.859375 56.28125 107.859375 C 56.28125 107.746094 56.390625 107.636719 56.503906 107.523438 C 56.726562 107.300781 57.285156 107.078125 58.179688 106.855469 L 59.296875 106.746094 L 59.96875 106.632812 L 60.078125 106.519531 L 60.414062 106.074219 L 61.085938 104.960938 C 61.421875 104.515625 61.757812 104.070312 61.980469 103.625 C 62.089844 103.511719 62.203125 103.402344 62.316406 103.289062 C 62.539062 103.066406 62.648438 102.957031 62.875 102.84375 C 62.984375 102.621094 63.097656 102.621094 63.320312 102.621094 C 63.433594 102.621094 63.542969 102.621094 63.65625 102.621094 C 63.765625 102.734375 63.878906 102.84375 63.878906 102.957031 C 63.878906 103.179688 63.878906 103.402344 63.65625 103.625 C 63.542969 103.734375 63.433594 103.957031 63.207031 104.179688 Z M 63.207031 104.179688 " fill-opacity="1" fill-rule="evenodd"/><path fill="#00858a" d="M 54.378906 110.421875 C 54.269531 110.53125 54.15625 110.644531 54.046875 110.644531 L 53.710938 110.644531 C 53.488281 110.644531 53.375 110.644531 53.261719 110.421875 C 53.152344 110.308594 53.039062 110.199219 52.929688 110.199219 L 52.59375 110.085938 C 52.257812 110.085938 52.035156 110.199219 51.699219 110.421875 L 51.25 110.753906 L 50.804688 111.203125 L 50.132812 111.871094 C 50.023438 111.980469 49.910156 112.203125 49.910156 112.316406 C 49.910156 112.425781 49.910156 112.425781 50.023438 112.539062 C 50.023438 112.539062 50.132812 112.539062 50.246094 112.539062 L 50.46875 112.425781 C 50.804688 112.316406 51.140625 112.09375 51.476562 111.871094 L 51.921875 111.535156 L 52.480469 111.3125 L 52.816406 111.203125 C 53.039062 111.203125 53.152344 111.3125 53.375 111.425781 L 54.046875 112.09375 C 54.15625 112.203125 54.269531 112.425781 54.492188 112.539062 C 54.605469 112.648438 54.828125 112.761719 55.050781 112.875 L 55.609375 113.097656 L 56.28125 113.320312 C 56.390625 113.320312 56.503906 113.429688 56.617188 113.652344 L 56.617188 113.988281 C 56.617188 114.097656 56.617188 114.210938 56.617188 114.210938 C 56.503906 114.320312 56.503906 114.320312 56.390625 114.320312 L 56.058594 114.320312 C 55.722656 114.320312 55.386719 114.320312 55.164062 114.210938 C 54.828125 113.988281 54.492188 113.765625 54.046875 113.542969 C 53.933594 113.429688 53.710938 113.320312 53.375 113.097656 C 53.152344 112.761719 52.929688 112.648438 52.703125 112.648438 L 52.59375 112.648438 C 52.035156 112.648438 51.585938 112.875 51.027344 113.429688 C 50.46875 113.875 50.023438 114.097656 49.464844 114.210938 C 49.242188 114.320312 49.015625 114.320312 48.90625 114.320312 C 48.683594 114.320312 48.457031 114.320312 48.234375 114.097656 C 48.011719 114.097656 48.011719 113.988281 48.011719 113.765625 L 48.011719 113.320312 C 48.234375 112.425781 48.792969 111.425781 49.574219 110.644531 C 50.359375 109.863281 51.140625 109.195312 52.144531 108.636719 C 52.371094 108.527344 52.703125 108.414062 53.261719 108.304688 L 53.488281 108.304688 C 53.933594 108.304688 54.15625 108.414062 54.378906 108.636719 C 54.492188 108.972656 54.605469 109.195312 54.605469 109.53125 C 54.605469 109.863281 54.492188 110.085938 54.378906 110.421875 Z M 54.378906 110.421875 " fill-opacity="1" fill-rule="evenodd"/><path fill="#00858a" d="M 48.683594 108.636719 L 48.011719 109.417969 L 47.5625 109.976562 L 47.003906 110.644531 L 46.335938 111.3125 C 46.113281 111.535156 45.886719 111.757812 45.664062 111.980469 C 45.328125 112.316406 45.105469 112.539062 44.769531 112.761719 C 44.210938 113.207031 43.652344 113.652344 42.984375 114.097656 C 42.871094 114.210938 42.648438 114.320312 42.3125 114.320312 L 42.199219 114.320312 C 41.976562 114.320312 41.863281 114.320312 41.753906 114.210938 C 41.304688 113.875 41.195312 113.429688 41.195312 112.875 L 41.195312 109.640625 C 41.195312 109.53125 41.304688 109.308594 41.304688 109.195312 C 41.304688 108.972656 41.304688 108.863281 41.417969 108.75 C 41.417969 108.191406 41.640625 107.859375 42.089844 107.636719 C 42.199219 107.636719 42.3125 107.636719 42.535156 107.523438 L 42.871094 107.636719 C 42.984375 107.636719 42.984375 107.746094 42.984375 108.082031 L 42.871094 109.085938 L 42.871094 109.53125 C 42.871094 109.640625 42.871094 109.753906 42.757812 110.085938 L 42.648438 110.753906 L 42.648438 112.203125 L 42.757812 112.425781 C 42.757812 112.539062 42.757812 112.648438 42.871094 112.648438 C 43.207031 112.539062 43.652344 112.203125 44.324219 111.535156 L 45.105469 110.753906 L 45.664062 110.199219 L 46.445312 109.308594 L 46.894531 108.863281 L 47.230469 108.304688 L 47.675781 107.746094 C 47.898438 107.636719 48.121094 107.523438 48.347656 107.523438 C 48.570312 107.523438 48.792969 107.636719 48.90625 107.746094 L 48.90625 107.96875 C 48.90625 108.082031 48.90625 108.191406 48.90625 108.191406 Z M 48.683594 108.636719 " fill-opacity="1" fill-rule="evenodd"/><path fill="#00858a" d="M 25.660156 110.085938 L 25.886719 110.085938 C 26.21875 110.085938 26.667969 109.863281 27.113281 109.640625 C 27.449219 109.417969 27.785156 109.308594 28.121094 109.308594 C 28.457031 109.308594 28.679688 109.308594 29.015625 109.417969 C 29.238281 109.53125 29.574219 109.640625 29.796875 109.863281 C 30.019531 110.085938 30.242188 110.308594 30.355469 110.644531 L 30.355469 111.3125 L 30.578125 112.316406 L 30.578125 113.652344 C 30.46875 113.765625 30.355469 113.875 30.132812 113.875 C 29.910156 113.988281 29.683594 113.875 29.574219 113.765625 C 29.460938 113.542969 29.347656 113.320312 29.347656 113.097656 L 29.238281 111.980469 C 29.238281 111.871094 29.125 111.648438 29.125 111.425781 L 28.902344 110.980469 C 28.789062 110.644531 28.566406 110.421875 28.230469 110.421875 C 28.121094 110.421875 27.898438 110.421875 27.785156 110.53125 C 27.339844 110.644531 26.890625 110.867188 26.554688 111.089844 C 25.886719 111.425781 25.4375 111.757812 25.101562 112.203125 L 23.984375 113.652344 C 23.875 113.765625 23.652344 113.875 23.539062 113.875 L 23.203125 113.875 C 22.980469 113.765625 22.757812 113.652344 22.757812 113.429688 C 22.757812 113.429688 22.867188 113.320312 22.867188 113.207031 C 23.203125 112.316406 23.539062 111.425781 23.875 110.753906 L 24.210938 109.53125 L 24.65625 108.304688 C 24.65625 108.082031 24.878906 107.96875 25.214844 107.859375 L 25.550781 107.96875 C 25.660156 107.96875 25.773438 108.082031 25.773438 108.304688 C 25.773438 108.414062 25.773438 108.636719 25.773438 108.863281 L 25.550781 109.195312 L 25.550781 109.53125 L 25.4375 109.753906 C 25.4375 109.863281 25.550781 109.976562 25.660156 110.085938 Z M 25.660156 110.085938 " fill-opacity="1" fill-rule="evenodd"/><path fill="#00858a" d="M 16.5 110.085938 L 16.609375 110.085938 C 17.058594 110.085938 17.394531 109.863281 17.953125 109.640625 C 18.175781 109.417969 18.511719 109.308594 18.957031 109.308594 C 19.179688 109.308594 19.515625 109.308594 19.738281 109.417969 C 20.074219 109.53125 20.296875 109.640625 20.632812 109.863281 C 20.855469 110.085938 20.96875 110.308594 21.082031 110.644531 L 21.191406 111.3125 L 21.304688 112.316406 L 21.304688 113.652344 C 21.304688 113.765625 21.191406 113.875 20.96875 113.875 C 20.746094 113.988281 20.523438 113.875 20.296875 113.765625 C 20.1875 113.542969 20.1875 113.320312 20.074219 113.097656 L 19.960938 111.980469 C 19.960938 111.871094 19.960938 111.648438 19.851562 111.425781 L 19.738281 110.980469 C 19.628906 110.644531 19.402344 110.421875 19.070312 110.421875 C 18.84375 110.421875 18.734375 110.421875 18.621094 110.53125 C 18.0625 110.644531 17.617188 110.867188 17.28125 111.089844 C 16.722656 111.425781 16.273438 111.757812 15.941406 112.203125 L 14.824219 113.652344 C 14.710938 113.765625 14.488281 113.875 14.265625 113.875 L 13.929688 113.875 C 13.703125 113.765625 13.59375 113.652344 13.59375 113.429688 C 13.59375 113.429688 13.59375 113.320312 13.703125 113.207031 C 14.039062 112.316406 14.375 111.425781 14.597656 110.753906 L 15.046875 109.53125 L 15.382812 108.304688 C 15.492188 108.082031 15.605469 107.96875 15.941406 107.859375 L 16.273438 107.96875 C 16.386719 107.96875 16.5 108.082031 16.609375 108.304688 C 16.609375 108.414062 16.609375 108.636719 16.5 108.863281 L 16.386719 109.195312 L 16.273438 109.53125 L 16.273438 109.753906 C 16.273438 109.863281 16.273438 109.976562 16.5 110.085938 Z M 16.5 110.085938 " fill-opacity="1" fill-rule="evenodd"/><g clip-path="url(#4104b4f0c6)"><path fill="#00858a" d="M 14.824219 104.292969 C 13.929688 105.964844 13.144531 107.746094 12.476562 109.417969 L 11.804688 111.089844 L 11.136719 112.875 L 10.574219 114.65625 C 10.464844 114.65625 10.464844 114.765625 10.351562 114.765625 C 10.242188 114.765625 10.128906 114.765625 10.128906 114.65625 C 9.792969 114.433594 9.683594 114.097656 9.683594 113.652344 C 9.683594 113.207031 9.792969 112.875 9.90625 112.425781 L 10.574219 110.199219 C 10.800781 109.417969 11.023438 108.75 11.246094 108.082031 L 12.027344 105.742188 C 12.253906 105.40625 12.363281 104.960938 12.585938 104.625 C 12.699219 104.179688 12.921875 103.847656 13.035156 103.402344 C 13.144531 103.179688 13.257812 103.066406 13.480469 102.84375 C 13.59375 102.734375 13.703125 102.621094 13.929688 102.621094 C 14.152344 102.621094 14.265625 102.621094 14.265625 102.621094 C 14.375 102.734375 14.488281 102.734375 14.597656 102.957031 C 14.710938 103.066406 14.710938 103.289062 14.824219 103.511719 L 14.933594 103.625 L 14.933594 103.847656 C 14.933594 103.957031 14.824219 104.179688 14.824219 104.292969 Z M 14.824219 104.292969 " fill-opacity="1" fill-rule="evenodd"/></g><path fill="#00858a" d="M 38.402344 108.304688 C 38.625 108.304688 38.847656 108.414062 39.070312 108.527344 C 39.296875 108.636719 39.40625 108.863281 39.519531 109.085938 C 39.628906 109.308594 39.742188 109.53125 39.742188 109.753906 C 39.742188 109.976562 39.628906 110.085938 39.628906 110.199219 C 39.628906 110.308594 39.519531 110.421875 39.519531 110.644531 C 39.183594 111.089844 38.960938 111.425781 38.625 111.871094 C 38.175781 112.316406 37.507812 112.761719 36.835938 113.097656 C 36.167969 113.429688 35.496094 113.652344 34.714844 113.875 L 33.707031 113.875 C 33.484375 113.765625 33.148438 113.652344 32.8125 113.542969 C 32.253906 113.207031 32.03125 112.875 32.03125 112.316406 C 32.03125 112.203125 32.03125 111.980469 32.144531 111.757812 C 32.476562 110.980469 32.8125 110.308594 33.261719 109.863281 C 33.707031 109.308594 34.265625 108.863281 35.046875 108.414062 C 35.71875 108.082031 36.390625 107.746094 37.171875 107.636719 L 37.394531 107.523438 C 37.617188 107.523438 37.730469 107.523438 37.84375 107.636719 C 37.953125 107.746094 38.175781 107.859375 38.289062 108.082031 Z M 38.066406 111.203125 C 38.289062 110.867188 38.402344 110.644531 38.402344 110.308594 C 38.402344 109.976562 38.289062 109.753906 37.953125 109.417969 C 37.730469 109.308594 37.394531 109.308594 37.171875 109.308594 C 36.949219 109.308594 36.613281 109.308594 36.390625 109.417969 C 35.832031 109.53125 35.382812 109.753906 34.9375 110.085938 C 34.714844 110.308594 34.488281 110.53125 34.265625 110.867188 C 34.042969 111.089844 33.820312 111.425781 33.707031 111.757812 C 33.597656 111.871094 33.597656 112.09375 33.597656 112.203125 C 33.597656 112.316406 33.597656 112.425781 33.597656 112.539062 C 33.707031 112.761719 34.042969 112.761719 34.601562 112.761719 C 34.824219 112.761719 35.160156 112.761719 35.496094 112.648438 C 35.71875 112.539062 36.054688 112.425781 36.390625 112.203125 L 37.285156 111.871094 C 37.507812 111.648438 37.84375 111.425781 38.066406 111.203125 Z M 38.066406 111.203125 " fill-opacity="1" fill-rule="evenodd"/><path fill="#00858a" d="M 74.496094 108.304688 C 74.71875 108.304688 74.941406 108.414062 75.164062 108.527344 C 75.390625 108.636719 75.5 108.863281 75.613281 109.085938 C 75.722656 109.308594 75.722656 109.53125 75.722656 109.753906 C 75.722656 109.976562 75.722656 110.085938 75.722656 110.199219 C 75.722656 110.308594 75.613281 110.421875 75.613281 110.644531 C 75.277344 111.089844 75.054688 111.425781 74.71875 111.871094 C 74.273438 112.316406 73.601562 112.761719 72.929688 113.097656 C 72.261719 113.429688 71.589844 113.652344 70.808594 113.875 L 69.800781 113.875 C 69.578125 113.765625 69.242188 113.652344 68.90625 113.542969 C 68.347656 113.207031 68.125 112.875 68.125 112.316406 C 68.125 112.203125 68.125 111.980469 68.238281 111.757812 C 68.574219 110.980469 68.90625 110.308594 69.355469 109.863281 C 69.691406 109.308594 70.359375 108.863281 71.03125 108.414062 C 71.8125 108.082031 72.484375 107.746094 73.265625 107.636719 L 73.488281 107.523438 C 73.714844 107.523438 73.824219 107.523438 73.824219 107.636719 C 74.046875 107.746094 74.273438 107.859375 74.382812 108.082031 Z M 74.160156 111.203125 C 74.382812 110.867188 74.496094 110.644531 74.496094 110.308594 C 74.496094 109.976562 74.382812 109.753906 74.046875 109.417969 C 73.824219 109.308594 73.488281 109.308594 73.265625 109.308594 C 73.042969 109.308594 72.707031 109.308594 72.484375 109.417969 C 71.925781 109.53125 71.476562 109.753906 71.03125 110.085938 C 70.808594 110.308594 70.585938 110.53125 70.359375 110.867188 C 70.136719 111.089844 69.914062 111.425781 69.800781 111.757812 C 69.691406 111.871094 69.578125 112.09375 69.578125 112.203125 C 69.578125 112.316406 69.691406 112.425781 69.691406 112.539062 C 69.800781 112.761719 70.136719 112.761719 70.695312 112.761719 C 70.917969 112.761719 71.253906 112.761719 71.589844 112.648438 C 71.8125 112.539062 72.148438 112.425781 72.484375 112.203125 L 73.378906 111.871094 C 73.601562 111.648438 73.824219 111.425781 74.160156 111.203125 Z M 74.160156 111.203125 " fill-opacity="1" fill-rule="evenodd"/><path fill="#00858a" d="M 69.691406 105.183594 C 69.691406 105.296875 69.464844 105.40625 69.242188 105.519531 C 68.90625 105.519531 68.796875 105.40625 68.574219 105.183594 C 68.460938 105.074219 68.460938 104.851562 68.347656 104.625 L 68.347656 104.292969 C 68.347656 104.070312 68.347656 103.957031 68.460938 103.734375 C 68.683594 103.625 68.796875 103.511719 69.019531 103.511719 C 69.242188 103.511719 69.464844 103.511719 69.578125 103.734375 C 69.691406 103.847656 69.800781 104.070312 69.914062 104.179688 L 69.914062 104.515625 C 69.914062 104.738281 69.800781 104.960938 69.691406 105.183594 Z M 67.789062 108.414062 L 67.457031 108.972656 L 67.007812 109.53125 C 66.785156 109.863281 66.5625 110.199219 66.335938 110.644531 C 66.113281 111.089844 66.003906 111.648438 65.777344 112.203125 L 65.667969 112.984375 L 65.445312 113.765625 C 65.445312 113.988281 65.21875 114.097656 65.109375 114.210938 C 64.996094 114.210938 64.773438 114.210938 64.660156 114.097656 C 64.4375 113.988281 64.4375 113.765625 64.4375 113.429688 L 64.4375 112.648438 C 64.550781 111.871094 64.773438 111.089844 64.996094 110.421875 C 65.21875 109.640625 65.554688 108.972656 65.890625 108.414062 C 65.890625 108.304688 66.003906 108.082031 66.113281 107.96875 C 66.226562 107.859375 66.335938 107.636719 66.335938 107.523438 C 66.5625 107.300781 66.671875 107.191406 66.894531 107.191406 C 67.230469 107.191406 67.457031 107.300781 67.566406 107.523438 C 67.679688 107.636719 67.789062 107.746094 67.902344 107.96875 L 67.902344 108.191406 C 67.902344 108.304688 67.902344 108.414062 67.789062 108.414062 Z M 67.789062 108.414062 " fill-opacity="1" fill-rule="evenodd"/><path fill="#00858a" d="M 206.019531 107.523438 L 206.578125 107.523438 C 206.804688 107.523438 206.914062 107.523438 207.027344 107.636719 C 207.136719 107.746094 207.136719 107.746094 207.25 107.859375 L 207.136719 108.082031 C 207.027344 108.191406 206.914062 108.304688 206.804688 108.304688 C 206.46875 108.414062 206.019531 108.414062 205.574219 108.527344 L 204.902344 108.636719 L 204.34375 108.636719 C 203.898438 109.640625 203.449219 110.644531 203.117188 111.648438 C 202.890625 112.203125 202.78125 112.648438 202.558594 113.207031 C 202.332031 113.765625 202.222656 114.210938 202 114.765625 C 201.773438 114.878906 201.664062 115.101562 201.4375 115.101562 C 201.214844 115.101562 201.105469 114.992188 200.878906 114.878906 C 200.769531 114.765625 200.65625 114.542969 200.65625 114.320312 C 200.878906 113.429688 201.214844 112.539062 201.664062 111.535156 L 202.222656 110.199219 L 202.890625 108.863281 C 202.558594 108.863281 202.222656 108.972656 201.773438 109.085938 C 201.4375 109.195312 201.214844 109.308594 200.992188 109.308594 L 200.65625 109.195312 C 200.546875 109.195312 200.433594 109.085938 200.210938 108.972656 C 200.210938 108.75 200.320312 108.527344 200.433594 108.304688 L 201.214844 108.082031 L 202 107.859375 L 202.667969 107.746094 L 203.5625 107.636719 L 203.898438 106.855469 L 204.34375 106.074219 L 204.792969 105.40625 L 205.238281 104.625 C 205.460938 104.292969 205.796875 103.957031 206.019531 103.734375 C 206.132812 103.734375 206.246094 103.625 206.46875 103.625 L 207.027344 103.625 C 207.363281 103.625 207.585938 103.734375 207.808594 103.957031 C 208.03125 104.179688 208.257812 104.402344 208.367188 104.738281 C 208.367188 104.960938 208.257812 105.074219 208.03125 105.183594 L 207.921875 105.183594 C 207.808594 105.183594 207.695312 105.183594 207.585938 105.074219 C 207.472656 104.960938 207.25 104.851562 207.136719 104.738281 C 206.914062 104.738281 206.804688 104.851562 206.578125 104.960938 C 206.246094 105.40625 206.019531 105.742188 205.796875 106.1875 L 205.351562 106.746094 L 205.015625 107.523438 Z M 206.019531 107.523438 " fill-opacity="1" fill-rule="evenodd"/><path fill="#00858a" d="M 195.515625 103.179688 L 193.617188 107.414062 C 193.28125 108.082031 193.058594 108.863281 192.945312 109.753906 C 192.722656 110.644531 192.613281 111.535156 192.613281 112.539062 C 192.613281 112.761719 192.722656 112.984375 192.835938 113.097656 C 192.835938 113.097656 193.058594 113.207031 193.171875 113.207031 L 193.28125 113.207031 C 193.503906 113.097656 193.617188 113.207031 193.730469 113.429688 C 193.730469 113.542969 193.730469 113.652344 193.730469 113.652344 C 193.730469 113.765625 193.617188 113.765625 193.617188 113.875 C 193.28125 114.097656 193.058594 114.097656 192.722656 114.097656 C 192.386719 114.097656 192.164062 113.988281 191.828125 113.875 C 191.71875 113.765625 191.605469 113.542969 191.492188 113.320312 L 191.382812 112.984375 L 191.382812 111.980469 C 191.382812 111.757812 191.382812 111.757812 191.492188 111.648438 C 191.605469 110.199219 191.941406 108.75 192.277344 107.523438 C 192.386719 107.191406 192.5 106.746094 192.613281 106.410156 C 192.722656 105.964844 192.945312 105.628906 193.058594 105.183594 C 193.171875 104.851562 193.28125 104.515625 193.503906 104.179688 C 193.617188 103.847656 193.730469 103.511719 193.953125 103.179688 L 194.175781 102.621094 C 194.289062 102.507812 194.511719 102.398438 194.847656 102.285156 C 195.070312 102.285156 195.292969 102.285156 195.40625 102.507812 C 195.515625 102.621094 195.515625 102.734375 195.515625 102.957031 Z M 195.515625 103.179688 " fill-opacity="1" fill-rule="evenodd"/><path fill="#00858a" d="M 211.945312 110.753906 C 211.386719 111.203125 210.824219 111.535156 210.15625 111.871094 C 209.484375 112.09375 208.816406 112.203125 208.144531 112.203125 C 208.03125 112.316406 207.921875 112.539062 207.921875 112.648438 C 207.921875 112.761719 207.921875 112.875 208.03125 112.984375 C 208.03125 113.097656 208.144531 113.207031 208.257812 113.320312 C 208.367188 113.320312 208.589844 113.429688 208.816406 113.429688 L 208.925781 113.429688 C 209.039062 113.429688 209.039062 113.429688 209.148438 113.429688 C 209.148438 113.320312 209.261719 113.320312 209.261719 113.320312 C 209.375 113.320312 209.484375 113.320312 209.484375 113.320312 C 209.597656 113.320312 209.597656 113.320312 209.707031 113.207031 C 210.042969 113.207031 210.378906 113.097656 210.714844 112.984375 L 211.050781 112.761719 L 211.496094 112.648438 C 211.71875 112.539062 211.832031 112.648438 211.945312 112.761719 L 211.945312 112.875 C 211.945312 112.984375 211.945312 113.097656 211.71875 113.207031 C 210.714844 113.875 209.597656 114.210938 208.480469 114.210938 L 208.03125 114.210938 C 207.695312 114.097656 207.363281 114.097656 207.136719 113.875 C 206.804688 113.765625 206.578125 113.542969 206.46875 113.207031 L 206.355469 112.875 L 206.355469 112.425781 C 206.355469 112.316406 206.355469 112.203125 206.355469 112.09375 C 206.355469 111.980469 206.46875 111.871094 206.46875 111.757812 C 206.691406 110.980469 207.136719 110.308594 207.808594 109.753906 C 208.480469 109.195312 209.148438 108.636719 209.820312 108.304688 L 210.714844 107.96875 L 211.160156 107.746094 L 211.609375 107.746094 C 212.054688 107.746094 212.503906 107.859375 212.835938 107.96875 C 213.171875 108.191406 213.285156 108.414062 213.285156 108.75 L 213.285156 109.085938 C 213.171875 109.53125 212.949219 109.753906 212.726562 109.976562 L 212.277344 110.421875 Z M 211.386719 109.640625 L 211.832031 109.195312 C 211.832031 109.195312 211.832031 109.085938 211.832031 108.972656 C 211.832031 108.972656 211.71875 108.863281 211.496094 108.863281 L 211.050781 109.085938 L 210.824219 109.195312 L 210.601562 109.195312 C 210.492188 109.308594 210.378906 109.417969 210.15625 109.53125 C 210.042969 109.53125 209.933594 109.640625 209.820312 109.753906 C 209.484375 109.976562 209.375 110.308594 209.148438 110.53125 C 209.148438 110.644531 209.148438 110.753906 209.261719 110.753906 L 209.484375 110.753906 C 210.15625 110.53125 210.824219 110.199219 211.386719 109.640625 Z M 211.386719 109.640625 " fill-opacity="1" fill-rule="evenodd"/><path fill="#00858a" d="M 200.769531 105.183594 C 200.65625 105.296875 200.546875 105.40625 200.210938 105.519531 C 199.988281 105.519531 199.761719 105.40625 199.652344 105.183594 C 199.539062 105.074219 199.429688 104.851562 199.429688 104.625 L 199.316406 104.292969 C 199.316406 104.070312 199.429688 103.957031 199.539062 103.734375 C 199.652344 103.625 199.875 103.511719 200.097656 103.511719 C 200.320312 103.511719 200.433594 103.511719 200.65625 103.734375 C 200.769531 103.847656 200.878906 104.070312 200.878906 104.179688 L 200.878906 104.515625 C 200.878906 104.738281 200.878906 104.960938 200.769531 105.183594 Z M 198.871094 108.414062 L 198.421875 108.972656 L 198.085938 109.53125 C 197.863281 109.863281 197.640625 110.199219 197.417969 110.644531 C 197.191406 111.089844 196.96875 111.648438 196.859375 112.203125 L 196.632812 112.984375 L 196.523438 113.765625 C 196.410156 113.988281 196.300781 114.097656 196.074219 114.210938 C 195.964844 114.210938 195.851562 114.210938 195.742188 114.097656 C 195.515625 113.988281 195.40625 113.765625 195.40625 113.429688 L 195.40625 112.648438 C 195.628906 111.871094 195.851562 111.089844 196.074219 110.421875 C 196.300781 109.640625 196.523438 108.972656 196.859375 108.414062 C 196.96875 108.304688 197.082031 108.082031 197.082031 107.96875 C 197.191406 107.859375 197.304688 107.636719 197.417969 107.523438 C 197.527344 107.300781 197.75 107.191406 197.976562 107.191406 C 198.199219 107.191406 198.421875 107.300781 198.644531 107.523438 C 198.757812 107.636719 198.757812 107.746094 198.871094 107.96875 L 198.871094 108.191406 C 198.871094 108.304688 198.871094 108.414062 198.871094 108.414062 Z M 198.871094 108.414062 " fill-opacity="1" fill-rule="evenodd"/><g clip-path="url(#d8e1d363b2)"><path fill="#fa9e0d" d="M 39.855469 73.984375 C 40.746094 69.636719 42.3125 65.402344 43.542969 61.277344 C 43.542969 61.277344 43.542969 61.167969 43.652344 61.167969 C 43.765625 61.167969 43.765625 61.277344 43.875 61.277344 C 43.988281 61.5 44.101562 61.613281 44.324219 61.613281 C 44.324219 61.613281 44.324219 61.726562 44.433594 61.726562 C 44.992188 62.503906 44.660156 63.617188 44.769531 64.84375 C 44.769531 64.957031 44.769531 64.957031 44.882812 65.066406 C 44.992188 65.289062 44.992188 65.402344 44.882812 65.625 C 44.882812 66.070312 44.769531 66.628906 44.660156 67.074219 C 44.660156 67.183594 44.324219 68.523438 44.210938 69.414062 C 42.871094 73.3125 42.757812 82.117188 42.089844 86.464844 C 41.976562 87.464844 41.976562 88.46875 41.753906 89.359375 C 41.640625 89.804688 41.640625 89.917969 41.304688 90.027344 C 40.300781 90.25 39.183594 90.140625 38.402344 89.695312 C 38.066406 89.472656 37.953125 89.136719 37.953125 88.804688 C 38.066406 88.582031 38.066406 88.359375 38.066406 87.910156 C 38.511719 82.785156 38.734375 79.21875 39.855469 73.984375 Z M 66.5625 68.746094 C 65.667969 64.289062 64.550781 62.28125 63.320312 57.9375 C 62.316406 55.148438 60.75 52.03125 59.519531 49.132812 C 58.179688 46.347656 56.28125 44.117188 55.050781 41.667969 C 54.941406 41.445312 55.164062 41.332031 55.273438 41.21875 C 57.175781 40.664062 58.070312 42.558594 58.960938 43.894531 C 60.863281 43.226562 62.761719 42.558594 64.660156 41.890625 C 67.789062 40.773438 71.253906 39.4375 73.488281 37.988281 C 74.046875 37.765625 74.605469 37.765625 74.832031 37.097656 C 74.273438 36.984375 73.378906 37.097656 72.484375 36.984375 C 71.03125 36.761719 69.355469 37.320312 67.902344 37.433594 C 62.761719 37.878906 57.398438 38.769531 52.257812 39.773438 C 50.132812 40.21875 48.121094 41.332031 46 41.667969 C 44.769531 41.890625 43.316406 42.445312 42.199219 42.78125 C 40.859375 43.226562 39.40625 43.671875 38.066406 44.007812 C 37.617188 45.007812 37.617188 46.125 37.285156 47.125 C 36.726562 48.796875 36.949219 48.910156 37.058594 50.246094 C 37.171875 50.46875 37.058594 50.691406 37.058594 50.804688 C 36.613281 51.917969 36.5 53.367188 36.613281 54.703125 C 36.613281 55.148438 36.726562 55.148438 36.726562 55.371094 C 44.992188 56.488281 52.816406 58.046875 61.308594 59.382812 C 61.421875 59.382812 61.757812 59.382812 61.757812 59.496094 C 61.867188 59.605469 61.867188 59.832031 61.757812 59.832031 C 60.863281 60.277344 59.632812 60.5 58.515625 60.5 C 53.597656 60.945312 49.128906 59.832031 44.546875 59.050781 C 41.53125 58.714844 38.960938 58.382812 36.613281 58.714844 C 36.5 58.714844 36.5 59.496094 36.613281 59.71875 C 36.726562 59.941406 36.835938 60.164062 36.835938 60.386719 C 37.058594 61.390625 36.726562 62.394531 36.835938 63.285156 C 36.949219 64.175781 36.835938 63.953125 36.949219 64.84375 C 37.394531 69.078125 37.285156 69.636719 37.507812 73.535156 C 37.507812 74.09375 37.507812 74.429688 37.507812 74.984375 C 37.507812 75.542969 37.171875 76.992188 37.058594 77.882812 C 37.058594 77.992188 36.949219 78.105469 36.835938 77.992188 C 36.390625 77.769531 36.613281 77.101562 36.390625 76.769531 C 36.277344 76.546875 36.277344 76.546875 36.167969 76.324219 C 35.941406 74.539062 35.71875 72.757812 35.496094 70.972656 C 34.714844 65.847656 33.929688 60.945312 33.597656 58.160156 C 33.039062 58.160156 32.476562 58.046875 31.917969 58.046875 C 25.886719 57.714844 19.402344 58.382812 13.816406 57.378906 C 13.371094 57.378906 13.257812 57.265625 12.921875 56.933594 C 11.695312 55.597656 9.570312 54.59375 9.683594 52.363281 C 9.683594 51.585938 9.90625 51.25 10.464844 50.804688 C 15.941406 46.347656 25.4375 42.113281 32.367188 39.882812 C 32.589844 30.523438 33.929688 20.160156 36.613281 15.144531 C 38.289062 14.699219 39.519531 15.589844 39.628906 17.152344 C 42.425781 18.488281 44.992188 22.164062 46.445312 24.839844 C 47.230469 26.289062 48.011719 27.515625 48.683594 29.519531 C 48.90625 30.410156 49.242188 30.96875 49.242188 31.636719 C 49.128906 32.417969 48.792969 32.195312 48.347656 31.75 C 48.011719 31.191406 47.675781 30.523438 47.339844 29.855469 C 46.894531 28.960938 46.222656 28.183594 45.777344 27.402344 C 45.21875 26.398438 44.660156 25.285156 43.988281 24.28125 C 43.316406 23.390625 42.648438 22.5 41.863281 21.609375 C 41.195312 20.941406 40.078125 20.160156 39.40625 19.601562 C 38.734375 20.605469 38.960938 22.386719 38.734375 23.503906 C 38.625 24.28125 38.511719 25.0625 38.402344 25.953125 C 38.175781 27.625 38.175781 29.296875 38.066406 31.191406 C 38.066406 32.75 37.953125 34.644531 37.953125 36.429688 C 37.953125 36.984375 37.84375 37.433594 37.84375 37.988281 C 38.289062 37.988281 38.847656 37.765625 39.296875 37.542969 C 48.457031 34.867188 57.0625 32.527344 66.785156 32.75 C 67.679688 32.75 69.578125 33.199219 70.359375 33.976562 C 72.261719 34.3125 75.835938 34.199219 77.066406 35.761719 C 77.511719 36.652344 77.289062 37.320312 77.066406 37.65625 C 75.949219 38.878906 74.382812 39.328125 73.152344 40.105469 C 70.695312 41.445312 68.125 42.78125 65.554688 44.007812 C 63.992188 44.785156 62.316406 45.457031 60.527344 46.011719 C 64.328125 51.695312 68.683594 61.277344 67.789062 67.964844 C 67.679688 68.1875 67.679688 68.300781 67.566406 68.410156 C 67.34375 68.523438 67.230469 68.746094 67.121094 68.96875 C 67.121094 69.414062 66.671875 69.636719 66.5625 68.746094 Z M 32.367188 45.902344 C 30.355469 47.015625 27.671875 47.460938 25.550781 48.351562 C 22.308594 49.578125 19.402344 50.804688 16.386719 52.363281 C 16.164062 52.585938 15.492188 52.808594 15.605469 52.921875 C 18.398438 53.476562 22.085938 53.476562 25.328125 53.8125 C 26.109375 53.925781 26.554688 54.035156 27.5625 54.148438 C 29.347656 54.371094 31.359375 54.59375 33.148438 54.816406 C 33.148438 54.257812 33.148438 53.8125 33.039062 53.367188 C 32.703125 51.25 32.476562 48.6875 32.367188 45.902344 Z M 32.367188 45.902344 " fill-opacity="1" fill-rule="evenodd"/></g></svg>