<?xml version="1.0" encoding="utf-8"?>
<!-- Generator: Adobe Illustrator 24.3.0, SVG Export Plug-In . SVG Version: 6.00 Build 0)  -->
<svg version="1.1" id="Healthcare_Icons" xmlns="http://www.w3.org/2000/svg" xmlns:xlink="http://www.w3.org/1999/xlink" x="0px"
	 y="0px" viewBox="0 0 64 64" style="enable-background:new 0 0 64 64;" xml:space="preserve">
<style type="text/css">
	.st0{fill:#8CE9E2;}
	.st1{fill:#113E68;}
</style>
<g>
	<circle class="st0" cx="47" cy="28" r="13.5"/>
	<path class="st1" d="M49.3,58.6H14.7c-1.6,0-2.9-1.3-2.9-2.9V8.3c0-1.6,1.3-2.9,2.9-2.9h34.6c1.6,0,2.9,1.3,2.9,2.9v47.4
		C52.2,57.3,50.9,58.6,49.3,58.6z M14.7,7.4c-0.5,0-0.9,0.4-0.9,0.9v47.4c0,0.5,0.4,0.9,0.9,0.9h34.6c0.5,0,0.9-0.4,0.9-0.9V8.3
		c0-0.5-0.4-0.9-0.9-0.9H14.7z"/>
	<path class="st1" d="M21.8,22.1c-0.5,0-1.1-0.1-1.6-0.2c-3.2-0.9-5.1-4.2-4.3-7.5c0.9-3.2,4.2-5.1,7.5-4.3s5.1,4.2,4.3,7.5
		c0,0,0,0,0,0l0,0C26.9,20.2,24.5,22.1,21.8,22.1z M21.8,11.9c-2.3,0-4.1,1.8-4.1,4.1c0,2.3,1.8,4.1,4.1,4.1c1.8,0,3.5-1.2,3.9-3
		l0,0c0.6-2.2-0.7-4.4-2.9-5C22.5,12,22.2,11.9,21.8,11.9z M26.7,17.3L26.7,17.3z"/>
	<path class="st1" d="M26.8,17.8h-0.2l-10.1-1.6c-0.6-0.1-0.9-0.6-0.8-1.2c0.1-0.6,0.6-0.9,1.2-0.8L27,15.8c0.6,0,1,0.5,0.9,1.1
		C27.9,17.4,27.4,17.9,26.8,17.8L26.8,17.8z"/>
	<path class="st1" d="M21.8,38.1c-3.4,0-6.1-2.7-6.1-6.1c0-1,0.2-1.9,0.7-2.7c0.7-1.4,2-2.5,3.5-3c3.2-1,6.6,0.7,7.7,3.9l0,0
		c1.1,3.2-0.6,6.6-3.8,7.7C23.1,38,22.5,38.1,21.8,38.1L21.8,38.1z M21.8,27.9c-0.4,0-0.9,0.1-1.3,0.2c-1,0.3-1.9,1-2.4,2
		c-1,2-0.2,4.5,1.8,5.5c2,1,4.5,0.2,5.5-1.8c1-2,0.2-4.5-1.8-5.5C23.1,28,22.4,27.9,21.8,27.9L21.8,27.9z"/>
	<path class="st1" d="M17.1,35.1c-0.4,0-0.8-0.2-0.9-0.6c-0.2-0.5,0-1.1,0.5-1.3c0,0,0,0,0,0L26,29c0.5-0.2,1.1,0,1.3,0.5
		c0.2,0.5,0,1.1-0.5,1.3l0,0L17.5,35C17.4,35.1,17.3,35.1,17.1,35.1z"/>
	<path class="st1" d="M21.8,54.1c-3.4,0-6.2-2.7-6.2-6.2c0-3.4,2.7-6.2,6.2-6.2s6.2,2.7,6.2,6.2c0,3.1-2.2,5.7-5.3,6.2l0,0
		C22.4,54.1,22.1,54.1,21.8,54.1z M21.8,43.9c-1.3,0-2.5,0.6-3.3,1.6c-1.3,1.8-1,4.3,0.8,5.7c0,0,0,0,0,0c0.9,0.6,1.9,0.9,3,0.8l0,0
		c2.2-0.3,3.7-2.4,3.4-4.7C25.4,45.4,23.7,44,21.8,43.9L21.8,43.9z"/>
	<path class="st1" d="M23.1,54c-0.5,0-0.9-0.3-1-0.8l-2.6-9.9c-0.1-0.5,0.2-1.1,0.7-1.2c0.5-0.1,1.1,0.2,1.2,0.7l2.5,9.9
		c0.1,0.5-0.2,1.1-0.7,1.2L23.1,54z"/>
	<path class="st1" d="M42.2,22.1c-3.1,0-5.6-2.3-6-5.3c-0.4-3.3,2-6.4,5.3-6.8c3.3-0.4,6.4,2,6.8,5.3c0.2,1.6-0.3,3.2-1.2,4.4
		c-1,1.3-2.4,2.1-4,2.3C42.7,22,42.5,22.1,42.2,22.1z M42.2,11.9h-0.5c-2.2,0.1-4,2.1-3.8,4.3s2.1,4,4.3,3.8c2.2-0.1,4-2.1,3.8-4.3
		C45.9,13.7,44.3,12,42.2,11.9z"/>
	<path class="st1" d="M43.4,22c-0.5,0-0.9-0.3-1-0.8l-2.3-10c-0.1-0.5,0.2-1.1,0.7-1.2c0,0,0,0,0,0c0.5-0.1,1.1,0.2,1.2,0.7
		c0,0,0,0,0,0l2.3,10c0.1,0.5-0.2,1.1-0.7,1.2c0,0,0,0,0,0L43.4,22z"/>
	<path class="st1" d="M42.2,38.1c-3.4,0.1-6.2-2.7-6.3-6.1c-0.1-3.4,2.7-6.2,6.1-6.3c3.4-0.1,6.2,2.7,6.3,6.1
		c0.1,3.1-2.1,5.7-5.2,6.2C42.8,38,42.5,38.1,42.2,38.1z M42.2,27.9c-2.2,0-4.1,1.8-4.1,4c0,1.3,0.6,2.5,1.6,3.3
		c1.8,1.3,4.4,1,5.7-0.8c1.3-1.8,1-4.4-0.8-5.7C43.9,28.2,43.1,27.9,42.2,27.9L42.2,27.9z"/>
	<path class="st1" d="M46.6,35.6c-0.2,0-0.4,0-0.5-0.1l-8.8-5.2c-0.5-0.2-0.7-0.8-0.5-1.3s0.8-0.7,1.3-0.5c0.1,0,0.1,0.1,0.2,0.1
		l8.8,5.2c0.5,0.3,0.6,0.9,0.3,1.4C47.3,35.4,47,35.6,46.6,35.6L46.6,35.6z"/>
	<path class="st1" d="M42.2,54.1c-3.4,0-6.1-2.7-6.1-6c0-3.4,2.7-6.1,6-6.1c1.1,0,2.2,0.3,3.1,0.8l0,0c2.9,1.7,3.9,5.4,2.3,8.3
		C46.4,52.9,44.4,54.1,42.2,54.1z M42.2,43.9c-2.3,0-4.1,1.8-4.1,4.1c0,0.4,0,0.7,0.1,1.1c0.6,2.2,2.8,3.5,5,2.9
		c2.2-0.6,3.5-2.8,2.9-5c-0.3-1-1-1.9-1.9-2.5l0,0C43.6,44.1,42.9,43.9,42.2,43.9L42.2,43.9z"/>
	<path class="st1" d="M40.2,53.7c-0.6,0-1-0.4-1-1c0-0.1,0-0.3,0.1-0.4l4.1-9.4c0.2-0.5,0.8-0.7,1.3-0.5c0.5,0.2,0.7,0.8,0.5,1.3
		l-4.1,9.4C40.9,53.4,40.6,53.7,40.2,53.7z"/>
	<path class="st1" d="M32.2,57.1c-0.6,0-1-0.4-1-1v-4.5c0-0.6,0.4-1,1-1s1,0.4,1,1v4.5C33.2,56.6,32.8,57.1,32.2,57.1z M32.2,48.1
		c-0.6,0-1-0.4-1-1v-4.5c0-0.6,0.4-1,1-1s1,0.4,1,1v4.5C33.2,47.6,32.8,48.1,32.2,48.1z M32.2,39.1c-0.6,0-1-0.4-1-1v-4.5
		c0-0.6,0.4-1,1-1s1,0.4,1,1v4.5C33.2,38.6,32.8,39.1,32.2,39.1z M32.2,30.1c-0.6,0-1-0.4-1-1v-4.5c0-0.6,0.4-1,1-1s1,0.4,1,1v4.5
		C33.2,29.6,32.8,30.1,32.2,30.1z M32.2,21.1c-0.6,0-1-0.4-1-1v-4.5c0-0.6,0.4-1,1-1s1,0.4,1,1v4.5C33.2,20.6,32.8,21.1,32.2,21.1z
		 M32.2,12.1c-0.6,0-1-0.4-1-1V6.6c0-0.6,0.4-1,1-1s1,0.4,1,1v4.5C33.2,11.6,32.8,12.1,32.2,12.1z"/>
</g>
</svg>
