<?xml version="1.0" encoding="utf-8"?>
<!-- Generator: Adobe Illustrator 24.3.0, SVG Export Plug-In . SVG Version: 6.00 Build 0)  -->
<svg version="1.1" id="Healthcare_Icons" xmlns="http://www.w3.org/2000/svg" xmlns:xlink="http://www.w3.org/1999/xlink" x="0px"
	 y="0px" viewBox="0 0 64 64" style="enable-background:new 0 0 64 64;" xml:space="preserve">
<style type="text/css">
	.st0{fill:#8CE9E2;}
	.st1{fill:#113E68;}
</style>
<g>
	<circle class="st0" cx="22.4" cy="25" r="13.5"/>
	<path class="st1" d="M24.7,48.8c-0.3,0-0.5-0.1-0.7-0.3L15.5,40c-0.2-0.2-0.3-0.4-0.3-0.7c0-0.3,0.1-0.5,0.3-0.7L39,15.1
		c0.4-0.4,1-0.4,1.4,0l8.5,8.5c0.2,0.2,0.3,0.4,0.3,0.7c0,0.3-0.1,0.5-0.3,0.7L25.4,48.5C25.2,48.7,25,48.8,24.7,48.8z M17.6,39.3
		l7.1,7.1l22.1-22.1l-7.1-7.1L17.6,39.3z"/>
	<path class="st1" d="M46.2,23.2c-0.3,0-0.5-0.1-0.7-0.3l-4.4-4.4c-0.2-0.2-0.3-0.4-0.3-0.7c0-0.3,0.1-0.5,0.3-0.7l7.4-7.4
		c0.4-0.4,1-0.4,1.4,0c0,0,0,0,0,0l4.4,4.4c0.4,0.4,0.4,1,0,1.4c0,0,0,0,0,0l-7.4,7.4C46.7,23.1,46.4,23.2,46.2,23.2z M43.2,17.8
		l3,3l6-6l-3-3L43.2,17.8z"/>
	<path class="st1" d="M18.2,51.2c-0.3,0-0.5-0.1-0.7-0.3l-4.4-4.4c-0.2-0.2-0.3-0.4-0.3-0.7c0-0.3,0.1-0.5,0.3-0.7l4.5-4.5
		c0.4-0.4,1-0.4,1.4,0l4.4,4.4c0.4,0.4,0.4,1,0,1.4l-4.5,4.5C18.7,51.1,18.5,51.2,18.2,51.2z M15.2,45.8l3,3l3.1-3.1l-3-3L15.2,45.8
		z"/>
	<path class="st1" d="M8.4,56.7c-0.3,0-0.5-0.1-0.7-0.3c-0.4-0.4-0.4-1,0-1.4c0,0,0,0,0,0l7.7-7.7c0.4-0.4,1-0.4,1.4,0
		c0.4,0.4,0.4,1,0,1.4l-7.7,7.7C8.9,56.5,8.6,56.7,8.4,56.7z"/>
	<path class="st1" d="M55.7,17.9c-0.3,0-0.5-0.1-0.7-0.3l-8.5-8.5c-0.4-0.4-0.4-1,0-1.4c0,0,0,0,0,0c0.4-0.4,1-0.4,1.4,0l8.5,8.5
		c0.4,0.4,0.4,1,0,1.4C56.2,17.8,55.9,17.9,55.7,17.9z"/>
	<path class="st1" d="M50.5,27.5c-0.3,0-0.5-0.1-0.7-0.3l-13-13c-0.4-0.4-0.4-1,0-1.4c0,0,0,0,0,0c0.4-0.4,1-0.4,1.4,0l13,13
		c0.4,0.4,0.4,1,0,1.4C51,27.4,50.7,27.5,50.5,27.5z"/>
	<path class="st1" d="M25.7,37c-0.3,0-0.5-0.1-0.7-0.3l-3.1-3.1c-0.4-0.4-0.4-1,0-1.4c0.4-0.4,1-0.4,1.4,0l0,0l3.1,3.1
		c0.4,0.4,0.4,1,0,1.4C26.2,36.9,26,37,25.7,37z"/>
	<path class="st1" d="M31,31.8c-0.3,0-0.5-0.1-0.7-0.3l-3.1-3.1c-0.4-0.4-0.4-1,0-1.4c0.4-0.4,1-0.4,1.4,0l3.1,3.1
		c0.4,0.4,0.4,1,0,1.4c0,0,0,0,0,0C31.5,31.7,31.3,31.8,31,31.8z"/>
	<path class="st1" d="M36.2,26.5c-0.3,0-0.5-0.1-0.7-0.3l-3.1-3.1c-0.4-0.4-0.3-1.1,0.1-1.4c0.4-0.3,0.9-0.3,1.3,0l3.1,3.1
		c0.4,0.4,0.4,1,0,1.4c0,0,0,0,0,0C36.7,26.4,36.5,26.5,36.2,26.5z"/>
</g>
</svg>
