<?xml version="1.0" encoding="utf-8"?>
<!-- Generator: Adobe Illustrator 24.3.0, SVG Export Plug-In . SVG Version: 6.00 Build 0)  -->
<svg version="1.1" id="Healthcare_Icons" xmlns="http://www.w3.org/2000/svg" xmlns:xlink="http://www.w3.org/1999/xlink" x="0px"
	 y="0px" viewBox="0 0 64 64" style="enable-background:new 0 0 64 64;" xml:space="preserve">
<style type="text/css">
	.st0{fill:#8CE9E2;}
	.st1{fill:#113E68;}
</style>
<g>
	<circle class="st0" cx="45" cy="40.5" r="13.5"/>
	<path class="st1" d="M32,41.9L32,41.9c-0.2,0-9.3-0.8-11.6-10c-1.9-1.3-4.3-5.8-4-8.4c0.1-1,0.7-1.8,1.6-2.2
		c-0.4-3.9-0.3-8.6,2.8-12c2.4-2.7,6.2-4,11.3-4h7.8c0.6,0,1,0.4,1,1s-0.4,1-1,1H32c-4.5,0-7.8,1.1-9.8,3.4
		c-2.7,3.1-2.6,7.7-2.2,11.3c0.1,0.5-0.3,1-0.9,1.1c0,0,0,0-0.1,0c-0.6,0-0.7,0.3-0.7,0.6c-0.4,2,2.4,6.2,3.2,6.6
		c0.3,0.1,0.6,0.4,0.7,0.7c1,4.8,5,8.3,9.9,8.9c0.6,0,1,0.5,1,1S32.6,42,32,41.9z"/>
	<path class="st1" d="M32.1,41.9c-0.6,0-1-0.4-1-1c0-0.6,0.4-1,1-1c4.9-0.5,8.8-4.1,9.8-8.9c0.1-0.4,0.3-0.6,0.7-0.8
		c0.8-0.4,3.5-4.6,3.2-6.6c0-0.3-0.1-0.5-0.7-0.6c-0.3,0-0.5-0.1-0.7-0.4C44.1,22.6,44,22.3,44,22v-0.3c0.4-3.5,1-8.7-4-10.8
		c-0.5-0.2-0.8-0.8-0.5-1.3c0.2-0.5,0.8-0.8,1.3-0.6c0,0,0,0,0,0c6.2,2.5,5.8,8.6,5.3,12.3c0.9,0.4,1.5,1.2,1.6,2.2
		c0.3,2.5-2.2,7.1-4,8.4C41.4,41.1,32.3,42,32.1,41.9L32.1,41.9z"/>
	<path class="st1" d="M5.1,60.4c-0.5,0-0.9-0.4-1-0.9c0-0.3-0.7-7.6,4.9-10.9c3.5-1.7,7.1-3.3,10.8-4.5l2.8-3.7
		c0.3-0.4,0.8-0.5,1.3-0.3l8.7,4.4c0.5,0.3,0.7,0.9,0.4,1.3c0,0,0,0.1-0.1,0.1l-3.7,5.7c-0.3,0.5-0.9,0.6-1.4,0.3l-5.6-3.5
		c-0.5-0.3-0.6-0.9-0.3-1.4c0.3-0.5,0.9-0.6,1.4-0.3l0,0l4.8,3l2.6-3.9l-6.9-3.6l-2.5,3.3c-0.1,0.2-0.3,0.3-0.5,0.3
		c-3.7,1.3-7.3,2.7-10.8,4.5c-4.4,2.6-3.9,8.9-3.9,9C6.1,59.8,5.7,60.3,5.1,60.4L5.1,60.4z"/>
	<path class="st1" d="M59,60.3L59,60.3c-0.6-0.1-1.1-0.5-1-1.1c0-0.1,0.5-6.3-3.9-8.9c-3.5-1.7-7-3.2-10.7-4.4
		c-0.2-0.1-0.4-0.2-0.5-0.3l-2.5-3.3l-7,3.6l2.4,3.8l4.2-2.2c0.5-0.3,1.1-0.1,1.3,0.4c0,0,0,0,0,0c0.2,0.5,0.1,1.1-0.4,1.3l-5.1,2.6
		c-0.5,0.2-1,0.1-1.3-0.4l-3.4-5.5C31,45.7,31,45.4,31,45.1c0.1-0.3,0.3-0.5,0.5-0.6l8.7-4.5c0.4-0.2,1-0.1,1.3,0.3l2.8,3.7
		c3.7,1.3,7.3,2.8,10.7,4.5c5.6,3.4,4.9,10.6,4.9,10.9C59.9,59.9,59.5,60.3,59,60.3z"/>
	<path class="st1" d="M35.4,33.4c-0.1,0-0.2,0-0.3-0.1c-2-0.9-4.3-0.9-6.4,0c-0.5,0.2-1.1,0-1.3-0.5c-0.2-0.5,0-1.1,0.5-1.3
		c2.5-1,5.3-1,7.8,0c0.5,0.2,0.8,0.8,0.6,1.3C36.2,33.1,35.8,33.4,35.4,33.4L35.4,33.4z"/>
	<path class="st1" d="M24.3,18.1c-0.4,0-0.8-0.3-0.9-0.6c-0.2-0.5,0.1-1.1,0.6-1.3c0,0,0,0,0,0c1.3-0.5,2.1-2.8,2.3-3.6
		c0.1-0.3,0.3-0.6,0.6-0.7c0.3-0.1,0.7-0.1,0.9,0.1c0.1,0,5.9,4.2,12.1,4.2c0.6,0,1,0.4,1,1s-0.4,1-1,1c-5.2,0-10-2.5-12.1-3.8
		c-0.5,1.3-1.5,3.1-3.1,3.7C24.5,18.1,24.4,18.2,24.3,18.1z"/>
	<path class="st1" d="M34.3,33c-0.6,0-1-0.4-1-1c0-0.3,0.1-0.6,0.4-0.8l5.1-4c0.4-0.3,1.1-0.3,1.4,0.2c0.3,0.4,0.3,1.1-0.2,1.4l0,0
		l-5.1,4C34.7,32.9,34.5,33,34.3,33z"/>
	<path class="st1" d="M50.5,18.1c-0.3,0-0.7-0.2-0.8-0.5c-0.9-1.4-0.7-3.3,0.4-4.5c0.5-0.5,0.6-1.3,0.3-2c-0.3-0.5-0.1-1.1,0.4-1.3
		c0,0,0,0,0,0c0.5-0.2,1.1,0,1.3,0.4c0.7,1.4,0.5,3.1-0.6,4.2c-0.5,0.6-0.6,1.5-0.2,2.1c0.3,0.5,0.1,1.1-0.3,1.4c0,0,0,0,0,0
		C50.8,18.1,50.7,18.1,50.5,18.1z"/>
	<path class="st1" d="M54.6,18.1c-0.3,0-0.7-0.2-0.8-0.5c-0.9-1.4-0.7-3.3,0.4-4.5c0.5-0.5,0.6-1.3,0.3-2c-0.3-0.5-0.1-1.1,0.4-1.3
		c0,0,0,0,0,0c0.5-0.3,1.1-0.1,1.3,0.4c0,0,0,0,0,0c0.7,1.4,0.4,3.1-0.6,4.2c-0.5,0.6-0.6,1.5-0.2,2.1c0.3,0.5,0.1,1.1-0.3,1.4
		c0,0,0,0,0,0C55,18.1,54.8,18.1,54.6,18.1z"/>
	<path class="st1" d="M32.1,60.5c-0.6,0-1-0.4-1-1v-7.8c0-0.6,0.4-1,1-1s1,0.4,1,1v7.8C33.1,60.1,32.6,60.5,32.1,60.5z"/>
	<path class="st1" d="M28,26.4c-0.1,0-0.2,0-0.3,0c-0.2,0-0.4-0.1-0.5-0.2C27.1,26.1,27,26.1,27,26c-0.4-0.4-0.5-0.9-0.4-1.4
		c0-0.1,0-0.2,0.1-0.3s0.1-0.2,0.1-0.3c0.1-0.1,0.1-0.2,0.2-0.2c0.6-0.6,1.5-0.6,2.1,0c0.1,0.1,0.1,0.1,0.2,0.2
		c0,0.1,0.1,0.2,0.1,0.3s0.1,0.2,0.1,0.3c0.1,0.5-0.1,1-0.4,1.4c-0.2,0.2-0.5,0.3-0.8,0.4C28.2,26.4,28.1,26.4,28,26.4z"/>
	<path class="st1" d="M35.7,26.4c-0.1,0-0.2,0-0.3,0c-0.2,0-0.4-0.1-0.5-0.2c-0.1,0-0.2-0.1-0.2-0.2c-0.4-0.4-0.5-0.9-0.4-1.4
		c0-0.1,0-0.2,0.1-0.3s0.1-0.2,0.1-0.3c0.1-0.1,0.1-0.2,0.2-0.2c0.1-0.1,0.1-0.1,0.2-0.2l0.3-0.1c0.1,0,0.2-0.1,0.3-0.1
		c0.8-0.2,1.6,0.4,1.8,1.2c0,0.2,0,0.4,0,0.6c0,0.1,0,0.2-0.1,0.3c0,0.1-0.1,0.2-0.1,0.3c-0.1,0.1-0.1,0.2-0.2,0.2
		C36.5,26.3,36.1,26.4,35.7,26.4z"/>
</g>
</svg>
