<svg xmlns="http://www.w3.org/2000/svg" xmlns:xlink="http://www.w3.org/1999/xlink" width="300" zoomAndPan="magnify" viewBox="0 0 224.87999 149.999998" height="200" preserveAspectRatio="xMidYMid meet" version="1.0"><defs><clipPath id="53e98580d7"><path d="M 0 0.0390625 L 224.761719 0.0390625 L 224.761719 149.960938 L 0 149.960938 Z M 0 0.0390625 " clip-rule="nonzero"/></clipPath></defs><g clip-path="url(#53e98580d7)"><path fill="#ffffff" d="M 0 0.0390625 L 224.878906 0.0390625 L 224.878906 149.960938 L 0 149.960938 Z M 0 0.0390625 " fill-opacity="1" fill-rule="nonzero"/><path fill="#ffffff" d="M 0 0.0390625 L 224.878906 0.0390625 L 224.878906 149.960938 L 0 149.960938 Z M 0 0.0390625 " fill-opacity="1" fill-rule="nonzero"/></g><path fill="#233f8c" d="M 77.386719 42.121094 L 90.464844 42.121094 L 90.464844 50.507812 L 77.386719 50.507812 Z M 77.386719 42.121094 " fill-opacity="1" fill-rule="nonzero"/><path fill="#233f8c" d="M 58.085938 61.402344 L 72.339844 61.402344 C 72.339844 61.402344 69.082031 43.339844 48.730469 41.714844 C 48.730469 41.714844 30.363281 40.765625 23.898438 59.382812 C 23.898438 59.382812 18.828125 71.785156 28.527344 83.679688 C 28.527344 83.679688 34.84375 92.472656 47.851562 92.691406 C 47.851562 92.691406 58.503906 93.582031 66.511719 84.199219 C 66.511719 84.199219 71.894531 77.941406 72.285156 72.722656 L 58.277344 72.722656 C 58.277344 72.722656 54.363281 80.800781 45.941406 79.125 C 45.941406 79.125 38.011719 78.816406 36.046875 69.078125 C 36.046875 69.078125 34.65625 59.652344 43.546875 55.902344 C 43.546875 55.902344 53.285156 52.644531 58.085938 61.402344 " fill-opacity="1" fill-rule="nonzero"/><path fill="#233f8c" d="M 77.386719 54.347656 L 90.429688 54.347656 L 90.429688 91.84375 L 77.363281 91.84375 Z M 77.386719 54.347656 " fill-opacity="1" fill-rule="nonzero"/><path fill="#233f8c" d="M 111.1875 77.191406 C 112.878906 79.578125 116.066406 81.042969 118.9375 80.300781 C 119.554688 80.152344 120.097656 79.796875 120.710938 79.648438 C 123.230469 78.222656 124.894531 75.222656 124.566406 72.050781 C 124.113281 69.847656 122.699219 67.59375 120.621094 66.59375 C 118.957031 65.65625 116.550781 65.492188 114.84375 66.144531 C 113.410156 66.71875 112.121094 67.640625 111.183594 68.96875 C 109.574219 71.277344 109.636719 74.871094 111.1875 77.191406 M 109.972656 57.96875 C 109.972656 57.96875 112.542969 55.457031 114.75 54.644531 C 114.75 54.644531 119.453125 52.761719 124.851562 54.902344 C 124.851562 54.902344 130.179688 56.34375 134.402344 62.144531 C 134.402344 62.144531 138.371094 67.539062 137.78125 74.003906 C 137.78125 74.003906 137.820312 81.167969 132.34375 86.414062 C 132.34375 86.414062 127.3125 92.214844 119.304688 92.140625 C 119.304688 92.140625 114.96875 93.027344 109.972656 88.074219 L 109.972656 101.816406 L 96.820312 101.816406 L 96.820312 54.371094 L 109.972656 54.371094 L 109.972656 57.804688 " fill-opacity="1" fill-rule="nonzero"/><path fill="#233f8c" d="M 142.777344 42 L 155.929688 42 L 155.929688 91.84375 L 142.777344 91.84375 Z M 142.777344 42 " fill-opacity="1" fill-rule="nonzero"/><path fill="#233f8c" d="M 173.710938 73.925781 C 174.039062 76.960938 176.277344 79.339844 178.835938 80.261719 C 181.597656 81.179688 184.949219 80.222656 186.832031 77.910156 C 188.515625 75.878906 188.878906 73.039062 188.011719 70.566406 C 187.070312 67.820312 184.152344 65.9375 181.265625 65.847656 C 178.789062 65.824219 176.476562 67.039062 175 69 C 174.132812 70.464844 173.542969 72.132812 173.710938 73.925781 M 188.480469 54.347656 L 202 54.347656 L 202 91.84375 L 188.480469 91.84375 L 188.480469 88.378906 C 188.480469 88.378906 184.484375 92.609375 179.566406 92.226562 C 179.566406 92.226562 169.082031 92.769531 163.402344 82.867188 C 163.402344 82.867188 160.21875 77.546875 160.804688 72.523438 C 160.804688 72.523438 160.851562 67.796875 163.203125 63.90625 C 163.203125 63.90625 165.113281 60.359375 167.761719 58.339844 C 167.761719 58.339844 172.464844 54.742188 175.941406 54.546875 C 175.941406 54.546875 183.238281 52.328125 188.480469 57.992188 Z M 188.480469 54.347656 " fill-opacity="1" fill-rule="nonzero"/></svg>